<svg width="30" height="30" viewBox="0 0 30 30" fill="none" xmlns="http://www.w3.org/2000/svg">
<g clip-path="url(#clip0_52_219)">
<path d="M27.4573 10.2829H26.8531V6.6579C26.8531 5.32509 25.7693 4.24121 24.4364 4.24121C23.1035 4.24121 22.0198 5.32503 22.0198 6.65671L22.0186 7.26208C22.018 7.59604 22.2876 7.86683 22.6216 7.86746C22.6221 7.86746 22.6221 7.86746 22.6221 7.86746C22.9561 7.86746 23.2263 7.59785 23.2269 7.26446L23.2281 6.65795C23.2281 5.99186 23.7703 5.44964 24.4364 5.44964C25.1025 5.44964 25.6448 5.99175 25.6448 6.6579V10.2829H2.08228C1.08279 10.2829 0.269775 11.0959 0.269775 12.0954C0.269775 12.882 0.776369 13.5464 1.47809 13.7966V15.7204C1.47809 18.4936 2.92662 20.9301 5.10309 22.3281V25.3871C5.10309 25.721 5.37332 25.9912 5.70728 25.9912H6.91559C7.14453 25.9912 7.35337 25.862 7.45605 25.6573L8.51886 23.5321C8.78637 23.5597 9.05762 23.5745 9.33228 23.5745H20.2073C20.4819 23.5745 20.7532 23.5598 21.0207 23.5321L22.0835 25.6573C22.1862 25.862 22.395 25.9912 22.624 25.9912H23.8323C24.1662 25.9912 24.4365 25.721 24.4365 25.387V22.328C26.6129 20.9301 28.0615 18.4935 28.0615 15.7203V13.7965C28.7632 13.5464 29.2698 12.882 29.2698 12.0954C29.2698 11.0959 28.4568 10.2829 27.4573 10.2829ZM7.51978 11.4912H13.5615V17.4237L7.51978 16.4172V11.4912ZM1.47809 12.0954C1.47809 11.762 1.74895 11.4912 2.08228 11.4912H6.31146V12.6995H2.08228C1.74895 12.6995 1.47809 12.4287 1.47809 12.0954ZM6.54216 24.7829H6.31146V22.9685C6.62576 23.1 6.95303 23.2046 7.28636 23.2948L6.54216 24.7829ZM23.2281 24.7829H22.9974L22.2532 23.2948C22.5865 23.2047 22.9138 23.1 23.2281 22.9686V24.7829ZM26.8531 15.7204C26.8531 19.3849 23.8718 22.3662 20.2073 22.3662H9.33228C5.66774 22.3662 2.68646 19.3849 2.68646 15.7204V13.9079H6.31146V16.9287C6.31146 17.2243 6.52505 17.4763 6.81653 17.5246L14.0665 18.7329C14.0995 18.7383 14.1326 18.7412 14.1656 18.7412C14.3078 18.7412 14.4465 18.6911 14.5562 18.5979C14.692 18.4834 14.7698 18.3147 14.7698 18.1371V13.9079H26.8531V15.7204H26.8531ZM27.4573 12.6995H14.7698V11.4912H27.4573C27.7906 11.4912 28.0615 11.762 28.0615 12.0954C28.0615 12.4287 27.7906 12.6995 27.4573 12.6995Z" fill="#12192C"/>
</g>
<defs>
<clipPath id="clip0_52_219">
<rect width="29" height="29" fill="white" transform="translate(0.269775 0.616211)"/>
</clipPath>
</defs>
</svg>
