<svg width="85" height="70" viewBox="0 0 85 70" fill="none" xmlns="http://www.w3.org/2000/svg">
<circle cx="69.5" cy="16.5" r="15.5" fill="#C9B59B" fill-opacity="0.45"/>
<path d="M4.22852 14.084C2.875 14.6172 1.87695 15.6016 1.31641 16.9551C1.08398 17.5293 1.07031 18.2539 1.07031 29.6699V41.7695L1.52148 42.6855C2.06836 43.793 3.02539 44.709 4.11914 45.1465C4.88477 45.4609 4.99414 45.4609 10.8867 45.502L16.875 45.543L17.2715 45.1328C17.75 44.6543 17.791 44.3262 17.3945 43.834L17.1211 43.4785H13.7715H10.4355V42.5215V41.5645H31.0801C51.5469 41.5645 51.7246 41.5645 51.9981 41.291C52.3399 40.9492 52.3535 40.3203 52.0117 39.9102L51.752 39.582L31.0938 39.541L10.4355 39.5137V38.625V37.7363H36.002H61.5684V38.6113V39.5L58.2734 39.541L54.9785 39.582L54.6504 39.9648C54.2539 40.4297 54.2402 40.7305 54.6094 41.209L54.8828 41.5645H58.2324H61.5684V42.5215V43.4785H40.9238C20.457 43.4785 20.2793 43.4785 20.0059 43.752C19.6641 44.0937 19.6504 44.7227 19.9922 45.1328L20.252 45.4609H43.6856H67.1055L67.8848 45.1465C68.9785 44.709 69.9356 43.793 70.4824 42.6855L70.9336 41.7695V29.6016V17.4336L70.5508 16.6543C70.0449 15.6289 69.1289 14.6992 68.1582 14.248L67.3789 13.8789L42.2637 13.8379L17.1621 13.8105L16.875 14.166C16.7109 14.3711 16.5879 14.6172 16.5879 14.7129C16.5879 15.0684 16.9023 15.5605 17.2305 15.7109C17.4629 15.8203 24.4219 15.8613 42.168 15.8613C66.1074 15.8613 66.791 15.875 67.2832 16.1211C67.5566 16.2715 67.9531 16.5586 68.1582 16.7773C68.9785 17.6387 68.9512 17.1055 68.9512 29.5742C68.9512 37.8184 68.9102 41.0996 68.7871 41.4414C68.541 42.166 68.1719 42.6309 67.4746 43.0273C66.8867 43.3691 66.6816 43.4102 65.2324 43.4648L63.6191 43.5059V39.9375V36.3555L63.2774 36.0273L62.9492 35.6855H36.002H9.05469L8.72656 36.0273L8.38477 36.3555V39.9375V43.5059L6.78516 43.4512C5.45898 43.4102 5.07617 43.3418 4.59766 43.0957C3.96875 42.7676 3.44922 42.1523 3.20313 41.4414C3.09375 41.1133 3.05273 37.7363 3.05273 29.5742C3.05273 17.1055 3.02539 17.6387 3.8457 16.7773C4.63867 15.9297 4.625 15.9297 9.51953 15.8613L14.0176 15.793L14.2773 15.4648C14.6191 15.0547 14.6055 14.4805 14.2637 14.1113C13.9766 13.8105 13.9355 13.8105 9.4375 13.8105C5.30859 13.8242 4.84375 13.8516 4.22852 14.084Z" fill="black"/>
<path d="M34.7031 20.4395C34.5117 20.6172 34.3613 20.8633 34.3613 20.9727C34.3613 21.3555 34.6621 21.8477 35.0039 21.998C35.2363 22.1074 38.2578 22.1484 45.2168 22.1484C55.0195 22.1484 55.1152 22.1484 55.4707 21.8613C55.9219 21.5059 55.9629 20.7812 55.5527 20.3711C55.2793 20.0977 55.1016 20.0977 45.1621 20.0977H35.0312L34.7031 20.4395Z" fill="black"/>
<path d="M58.8617 20.4121C58.4652 20.8359 58.4789 21.3965 58.9027 21.8066C59.2171 22.1348 59.2992 22.1484 61.0902 22.1484C62.8812 22.1484 62.9632 22.1348 63.2777 21.8066C63.6878 21.3965 63.7152 20.9316 63.3324 20.4531C63.0589 20.0977 63.0453 20.0977 61.1039 20.0977C59.2445 20.0977 59.1351 20.1113 58.8617 20.4121Z" fill="black"/>
<path d="M19.6377 48.5645C19.4736 48.7559 19.3232 49.166 19.2686 49.6035C19.0635 51.2578 18.1748 52.8711 16.8486 54.0332C16.165 54.6211 16.042 54.7988 16.042 55.1816C16.042 55.7422 16.4521 56.1934 16.9443 56.1934C18.2979 56.1934 20.6631 53.0898 21.1689 50.6562C21.4424 49.3164 21.4287 48.9883 21.0322 48.6055C20.6084 48.168 20.0068 48.1543 19.6377 48.5645Z" fill="black"/>
<path d="M27.0059 48.5355C26.7188 48.809 26.7051 48.891 26.7051 52.2269C26.7051 55.4672 26.7188 55.6586 26.9785 55.9184C27.3203 56.2602 27.9492 56.2738 28.3594 55.932L28.6875 55.6723V52.2269V48.7816L28.3594 48.5219C27.9492 48.1801 27.375 48.1937 27.0059 48.5355Z" fill="black"/>
<path d="M35.5918 48.5355C35.332 48.7953 35.3184 48.9867 35.3184 52.2269C35.3184 55.4672 35.332 55.6586 35.5918 55.9184C35.9336 56.2602 36.5625 56.2738 36.9727 55.932L37.3008 55.6723V52.2269V48.7816L36.9727 48.5219C36.5625 48.1801 35.9336 48.1937 35.5918 48.5355Z" fill="black"/>
<path d="M43.6436 48.5209L43.3154 48.7807V52.1986C43.3154 55.3705 43.3291 55.6303 43.5752 55.9037C43.917 56.2729 44.6553 56.2865 45.0244 55.9174C45.2842 55.6576 45.2979 55.4662 45.2979 52.226C45.2979 48.89 45.2842 48.808 44.9971 48.5346C44.6279 48.1928 44.0537 48.1791 43.6436 48.5209Z" fill="black"/>
<path d="M50.9732 48.6055C50.5767 48.9883 50.563 49.3164 50.8364 50.6562C51.3423 53.0898 53.7075 56.1934 55.061 56.1934C55.5669 56.1934 55.9634 55.7422 55.9634 55.1816C55.9634 54.7852 55.8403 54.6211 55.1567 54.0195C53.8032 52.8437 52.9556 51.2852 52.7368 49.5898C52.5864 48.3457 51.7114 47.8535 50.9732 48.6055Z" fill="black"/>
<circle cx="5" cy="60.7695" r="5" fill="#C9B59B"/>
</svg>
