<svg width="86" height="70" viewBox="0 0 86 70" fill="none" xmlns="http://www.w3.org/2000/svg">
<circle cx="15.5" cy="27.5" r="15.5" fill="#C9B59B" fill-opacity="0.45"/>
<circle cx="81" cy="52" r="5" fill="#C9B59B"/>
<g clip-path="url(#clip0_1189_2430)">
<path d="M15.8652 1.39844C15.6738 1.67188 15.6465 2.875 15.6465 11.7617C15.6465 20.6484 15.6738 21.8516 15.8652 22.125L16.0703 22.4258H24.3828C30.6582 22.4258 32.7227 22.3848 32.8457 22.2617C32.9688 22.1387 33.0098 19.6367 33.0098 11.8301C33.0098 2.04102 32.9961 1.53516 32.7637 1.33008C32.5312 1.125 31.752 1.09766 24.2871 1.09766H16.0703L15.8652 1.39844ZM31.5059 11.8301V21.0586H24.3281H17.1504V11.8301V2.60156H24.3281H31.5059V11.8301Z" fill="black"/>
<path d="M18.4082 3.85742C18.2852 3.98047 18.2441 5.94922 18.2441 11.8555C18.2441 19.457 18.2578 19.6895 18.5039 19.8262C18.6816 19.9082 20.7871 19.9629 24.4375 19.9629C29.7422 19.9629 30.1113 19.9492 30.3164 19.7168C30.5215 19.4844 30.5488 18.7461 30.5488 11.8418C30.5488 6.85156 30.4941 4.13086 30.4121 3.95312C30.2754 3.70703 30.0566 3.69336 24.4238 3.69336C20.0488 3.69336 18.5313 3.73438 18.4082 3.85742ZM29.0449 11.7598V18.459H24.3281H19.6113V11.7598V5.06055H24.3281H29.0449V11.7598Z" fill="black"/>
<path d="M56.6621 10.5293C56.3887 10.8027 56.3887 10.9805 56.3887 39.623C56.3887 67.377 56.4023 68.4707 56.6348 68.6758C56.8672 68.8945 57.9063 68.9082 68.7207 68.9082C80 68.9082 80.5605 68.8945 80.7656 68.6621C80.9844 68.4297 80.998 66.2148 80.998 39.6094C80.998 10.9805 80.998 10.8027 80.7246 10.5293C80.4512 10.2559 80.2734 10.2559 68.6934 10.2559C57.1133 10.2559 56.9355 10.2559 56.6621 10.5293ZM79.4941 36.8477V61.9355H77.9219H76.3496V40.9766C76.3496 22.2324 76.3223 19.9902 76.1309 19.7168C76.0215 19.5527 75.8027 19.416 75.666 19.416C75.5156 19.416 73.9434 20.0586 72.1523 20.8516C70.3613 21.6445 68.8574 22.2871 68.7891 22.2871C68.7344 22.2871 68.3242 21.7812 67.8594 21.166C67.4082 20.5371 66.9434 19.9766 66.834 19.9219C66.4785 19.7168 65.9727 19.9355 65.877 20.332C65.7676 20.7695 65.6855 20.6602 68.1055 23.9551C70.1289 26.7305 70.2656 26.8535 70.8945 26.5254C71.332 26.293 71.209 25.7461 70.498 24.7617C70.1289 24.2695 69.8008 23.791 69.7461 23.709C69.6914 23.5996 70.5254 23.1621 72.166 22.4375C73.5469 21.8359 74.7227 21.3301 74.7637 21.3301C74.8047 21.3301 74.8457 30.4629 74.8457 41.6328V61.9355H66.3691H57.8926V54.7578V47.5801H58.9863H60.0801V49.002C60.0801 49.7949 60.1348 50.5879 60.2031 50.7656C60.3809 51.2168 60.832 51.3535 61.2422 51.0801L61.584 50.8613V40.5117C61.584 31.0781 61.5703 30.1484 61.3516 29.916C61.0645 29.5879 60.6953 29.6016 60.3535 29.9434C60.1074 30.1895 60.0801 30.3945 60.0801 31.7207V33.2246H58.9863H57.8926V22.4922V11.7598H68.6934H79.4941V36.8477ZM60.0801 40.4707V46.2129H58.9863H57.8926V40.4707V34.7285H58.9863H60.0801V40.4707ZM79.4941 65.4219V67.4043H68.6934H57.8926V65.4219V63.4395H68.6934H79.4941V65.4219Z" fill="black"/>
<path d="M37.1133 14.2227C36.8672 14.4688 36.8398 14.6738 36.8398 16.3145C36.8398 18.7344 36.8398 18.7344 38.5488 18.7344H39.834L39.875 23.916L39.916 29.0977L40.3398 29.6992C40.5996 30.041 41.0508 30.4238 41.4336 30.6289C42.0898 30.9707 42.1445 30.9707 45.4668 30.9707H48.8301L49.5 30.5605C49.9102 30.3008 50.3203 29.8906 50.5801 29.4805L50.9902 28.8105L51.0312 23.7656L51.0723 18.7344H52.2754C53.9434 18.7344 53.9297 18.748 53.9297 16.3691C53.9297 14.6738 53.9023 14.4688 53.6562 14.2227C53.3828 13.9492 53.2051 13.9492 45.3848 13.9492C37.5645 13.9492 37.3867 13.9492 37.1133 14.2227ZM39.8477 16.3418V17.2305H39.0957H38.3438V16.3418V15.4531H39.0957H39.8477V16.3418ZM49.5547 21.8789C49.5547 28.9473 49.5547 28.9063 48.7344 29.3301C48.4199 29.4941 47.75 29.5352 45.3848 29.5352C42.8281 29.5352 42.3633 29.5078 42.0215 29.3027C41.2148 28.8242 41.2148 28.8105 41.2148 21.8242V15.4531H45.3848H49.5547V21.8789ZM52.4258 16.3418V17.2305H51.7422H51.0586V16.3418V15.4531H51.7422H52.4258V16.3418Z" fill="black"/>
<path d="M14.4033 25.3086C13.8564 25.8555 14.3623 26.5254 15.333 26.5254H15.9209V27.4141V28.3027H13.6924C11.6963 28.3027 11.4229 28.3301 11.2314 28.5488C10.9033 28.9043 10.8896 33.3203 11.2041 34.5234C11.8057 36.793 13.542 38.543 15.7705 39.1309C16.3721 39.2812 17.2197 39.3633 18.2998 39.3633L19.9131 39.377L19.8311 40.8398C19.79 41.6602 19.6533 48.209 19.5166 55.4277C19.2842 68.252 19.2979 68.5391 19.5439 68.7168C19.749 68.8672 20.7061 68.9082 24.4248 68.9082H29.0459L29.2373 68.5938C29.415 68.334 29.415 66.748 29.1826 55.5098C29.0322 48.4824 28.9092 41.9746 28.9092 41.0449V39.377H30.4541C31.3838 39.377 32.3135 39.2949 32.7783 39.1719C35.0205 38.584 36.7295 36.9844 37.4131 34.8242C37.6455 34.0996 37.6729 33.6074 37.6592 31.3242C37.6592 29.6152 37.6045 28.6035 37.5088 28.4805C37.3857 28.3438 36.7979 28.3027 35.0479 28.3027H32.7373V27.4141V26.5254H33.3252C34.3506 26.5254 34.8838 25.8008 34.2686 25.2539C34.0498 25.0625 33.6807 25.0215 31.9443 25.0215C29.9619 25.0215 29.8662 25.0352 29.6748 25.3223C29.3877 25.7324 29.4014 25.9238 29.7295 26.252C29.9209 26.4434 30.1807 26.5254 30.6182 26.5254H31.2334V27.4141V28.3027H24.3291H17.4248V27.4141V26.5254H18.0127C18.71 26.5254 19.2022 26.2246 19.2022 25.7734C19.2022 25.1035 18.9424 25.0215 16.7275 25.0215C14.8545 25.0215 14.6631 25.0488 14.4033 25.3086ZM36.2647 30.9961L36.2236 32.1992L24.3701 32.2402L12.5029 32.2676V31.0371V29.8066H24.3975H36.3057L36.2647 30.9961ZM36.1553 33.8398C36.1553 33.9492 36.0322 34.373 35.8682 34.7969C35.499 35.7812 34.4873 36.8887 33.4619 37.3945L32.6689 37.8047H24.3975H16.126L15.3467 37.4355C14.0205 36.8203 12.9131 35.4531 12.5713 34.0039L12.4756 33.6348H24.3154C34.6104 33.6348 36.1553 33.6621 36.1553 33.8398ZM27.4053 39.7461C27.4053 39.9648 27.5283 46.0352 27.6787 53.2539C27.8291 60.4727 27.9522 66.6113 27.9522 66.8848V67.4043H24.3428H20.7334L20.7881 65.3809C20.8838 62.0586 21.2529 42.6992 21.2529 40.9766V39.377H24.3291H27.4053V39.7461Z" fill="black"/>
<path d="M41.7617 36C39.7793 36.6699 38.3438 38.0234 37.2363 40.2793C36.7578 41.2637 36.4707 42.0703 36.2656 43.0137C35.7871 45.3789 36.0469 48.4961 36.9082 50.4785C36.9902 50.6973 36.9219 50.7246 36.4297 50.7246C35.4863 50.7246 35.3359 50.875 35.3359 51.8594C35.3359 54.1016 36.7441 56.7129 38.6582 58.0254C39.0957 58.3262 39.4375 58.668 39.4375 58.7773C39.4375 58.9551 37.8516 66.9395 37.5918 68.0469C37.5508 68.252 37.6191 68.457 37.7969 68.6348C38.0566 68.8945 38.2344 68.9082 43.6074 68.9082C49.0352 68.9082 49.1445 68.9082 49.4316 68.6211C49.6094 68.4434 49.6914 68.2383 49.6367 68.0469C49.459 67.3086 47.7773 58.9414 47.7773 58.7773C47.7773 58.668 48.1738 58.2988 48.6523 57.9434C50.5801 56.5488 51.8789 54.1016 51.8789 51.8594C51.8789 50.875 51.7285 50.7246 50.7852 50.7246C50.293 50.7246 50.2246 50.6973 50.3066 50.4785C51.0313 48.7012 51.25 47.2656 51.1543 45.0234C51.0449 42.5078 50.375 40.457 49.0898 38.707C47.2168 36.1777 44.3457 35.1113 41.7617 36ZM45.8633 37.75C47.4902 38.6113 48.8027 40.498 49.4316 42.8633C50.0195 45.0098 49.7734 48.0859 48.8848 50.1094C48.625 50.6973 48.584 50.7246 48.0645 50.7246H47.5176L47.9141 50.0684C48.8438 48.5645 49.2949 46.2812 49.0215 44.3535C48.502 40.6895 46.3418 38.2285 43.6074 38.2285C40.9004 38.2285 38.6992 40.7031 38.1934 44.3535C37.9199 46.2812 38.3574 48.5645 39.3008 50.0684L39.6973 50.7246H39.1504C38.6309 50.7246 38.5898 50.6973 38.3301 50.1094C37.4414 48.0859 37.209 45.0234 37.7832 42.877C39.0137 38.2559 42.582 36 45.8633 37.75ZM44.5234 39.8145C45.2754 40.0332 46.2734 40.9766 46.793 41.9473C48.1465 44.4902 47.8184 48.2227 46.041 50.1914L45.5625 50.7246H43.6074H41.6523L41.1738 50.1777C40.0938 49.002 39.6426 47.6211 39.6426 45.5293C39.6426 43.916 39.8066 43.1504 40.4219 41.9336C40.8184 41.127 41.625 40.3203 42.377 39.9785C43.1426 39.6094 43.7305 39.5684 44.5234 39.8145ZM50.3203 52.8027C50.0605 54.5254 48.4473 56.6172 46.7793 57.4102C45.6035 57.957 44.9473 58.1074 43.6074 58.1074C42.2539 58.1074 41.584 57.957 40.4355 57.3965C38.7402 56.5625 37.1543 54.5117 36.8945 52.8027L36.7988 52.2285H43.6074H50.416L50.3203 52.8027ZM41.8301 59.4062C43.0469 59.666 44.168 59.666 45.3711 59.4062C45.8906 59.2969 46.3281 59.2148 46.3418 59.2422C46.3555 59.2559 46.7383 61.1016 47.1895 63.3301L48.0234 67.4043H43.6074H39.2051L40.0391 63.3027C40.5039 61.0469 40.873 59.2012 40.873 59.2012C40.873 59.2012 41.3105 59.2969 41.8301 59.4062Z" fill="black"/>
</g>
<defs>
<clipPath id="clip0_1189_2430">
<rect width="70" height="70" fill="white" transform="translate(11)"/>
</clipPath>
</defs>
</svg>
