<svg width="28" height="28" viewBox="0 0 28 28" fill="none" xmlns="http://www.w3.org/2000/svg">
<g clip-path="url(#clip0_52_214)">
<path d="M6.18812 12.0874V12.0873H6.08812C5.7963 12.0873 5.50942 12.1089 5.22888 12.15V10.7932C5.22888 9.87541 5.97576 9.12853 6.89358 9.12853H11.4777C12.3955 9.12853 13.1424 9.87541 13.1424 10.7932V12.0874H6.18812ZM25.6473 13.8359V5.39102C25.6473 3.27156 23.9231 1.54746 21.8037 1.54746H5.62822C3.50876 1.54746 1.78466 3.27161 1.78466 5.39102V13.9469C0.784162 15.0071 0.169775 16.436 0.169775 18.0057V24.4405C0.169775 25.6769 1.17552 26.6827 2.412 26.6827C3.64843 26.6827 4.65418 25.6769 4.65418 24.4405V23.8759H22.8854V24.4405C22.8854 25.6769 23.8912 26.6827 25.1276 26.6827C26.364 26.6827 27.3698 25.6769 27.3698 24.4405V18.0057C27.3698 16.3805 26.7111 14.9063 25.6473 13.8359ZM5.62822 2.80215H21.8037C23.2311 2.80215 24.3926 3.96362 24.3926 5.39102V12.8715C24.1289 12.7198 23.8525 12.5879 23.5654 12.4777V10.7932C23.5654 9.1834 22.2558 7.87385 20.646 7.87385H16.0619C15.1328 7.87385 14.3046 8.31045 13.7698 8.98819C13.2351 8.31045 12.4068 7.87385 11.4778 7.87385H6.89369C5.28385 7.87385 3.9743 9.18334 3.9743 10.7932V12.4777C3.64782 12.6029 3.3352 12.7563 3.0394 12.9348V5.39102C3.03935 3.96362 4.20077 2.80215 5.62822 2.80215ZM14.3971 10.7932C14.3971 9.87536 15.144 9.12848 16.0618 9.12848H20.6459C21.5637 9.12848 22.3106 9.87536 22.3106 10.7932V12.1499C22.03 12.1089 21.7432 12.0873 21.4514 12.0873H14.3971V10.7932ZM6.08812 13.342H21.4514C24.0229 13.342 26.115 15.4342 26.115 18.0057V19.4701H20.926C20.5795 19.4701 20.2986 19.7511 20.2986 20.0975C20.2986 20.4439 20.5795 20.7248 20.926 20.7248H26.1151V22.6213H1.42446V20.7248H15.6526C15.999 20.7248 16.2799 20.4439 16.2799 20.0975C16.2799 19.7511 15.999 19.4701 15.6526 19.4701H1.42446V18.0057C1.42446 15.4342 3.51665 13.342 6.08812 13.342ZM3.39949 24.4405C3.39949 24.9849 2.95641 25.428 2.412 25.428C1.86759 25.428 1.42446 24.9849 1.42446 24.4405V23.8759H3.39949V24.4405ZM25.1275 25.428C24.5831 25.428 24.1401 24.9849 24.1401 24.4405V23.8759H26.1151V24.4405C26.1151 24.9849 25.672 25.428 25.1275 25.428Z" fill="#12192C" stroke="#12192C" stroke-width="0.2"/>
<path d="M18.2896 20.6246C18.581 20.6246 18.8172 20.3883 18.8172 20.0969C18.8172 19.8056 18.581 19.5693 18.2896 19.5693C17.9982 19.5693 17.762 19.8056 17.762 20.0969C17.762 20.3883 17.9982 20.6246 18.2896 20.6246Z" fill="#12192C"/>
</g>
<defs>
<clipPath id="clip0_52_214">
<rect width="27" height="27" fill="white" transform="translate(0.269775 0.616211)"/>
</clipPath>
</defs>
</svg>
