<svg width="21" height="28" viewBox="0 0 21 28" fill="none" xmlns="http://www.w3.org/2000/svg">
<path d="M19.6058 2.65967H0.506191C0.226267 2.65967 0 2.88594 0 3.16586V27.0358C0 27.3157 0.226267 27.542 0.506191 27.542H19.6058C19.8857 27.542 20.112 27.3157 20.112 27.0358V3.16586C20.112 2.88594 19.8857 2.65967 19.6058 2.65967ZM16.5772 6.16504V26.5296H10.5622V6.16453L16.5772 6.16504ZM9.54979 26.5296H3.53473V6.16453H9.54979V26.5296ZM19.0996 26.5296H17.5896V5.65834C17.5896 5.37842 17.3633 5.15215 17.0834 5.15215H3.02854C2.74862 5.15215 2.52235 5.37842 2.52235 5.65834V26.5296H1.01238V3.67205H19.0996V26.5296Z" fill="black"/>
<path d="M5.41011 16.3624L6.03576 15.7368V18.1801C6.03576 18.4601 6.26203 18.6863 6.54195 18.6863C6.82188 18.6863 7.04814 18.4601 7.04814 18.1801V15.7368L7.6738 16.3624C7.7725 16.4611 7.90209 16.5107 8.03167 16.5107C8.16126 16.5107 8.29084 16.4611 8.38955 16.3624C8.58747 16.1645 8.58747 15.8446 8.38955 15.6467L6.90034 14.158C6.85377 14.1109 6.79758 14.0739 6.73481 14.0481C6.6113 13.997 6.4721 13.997 6.34808 14.0481C6.28582 14.0739 6.22963 14.1114 6.18306 14.158L4.69385 15.6467C4.49593 15.8446 4.49593 16.1645 4.69385 16.3624C4.89177 16.5603 5.21168 16.5603 5.4096 16.3624H5.41011Z" fill="black"/>
<path d="M11.7217 17.0475L13.2109 18.5367C13.2575 18.5838 13.3137 18.6207 13.3759 18.6465C13.4377 18.6723 13.5035 18.6855 13.5693 18.6855C13.6351 18.6855 13.7009 18.6723 13.7626 18.6465C13.8249 18.6207 13.8811 18.5838 13.9277 18.5367L15.4169 17.0475C15.6148 16.8495 15.6148 16.5296 15.4169 16.3317C15.219 16.1338 14.899 16.1338 14.7011 16.3317L14.0755 16.9574V14.5145C14.0755 14.2346 13.8492 14.0083 13.5693 14.0083C13.2894 14.0083 13.0631 14.2346 13.0631 14.5145V16.9574L12.4374 16.3317C12.2395 16.1338 11.9196 16.1338 11.7217 16.3317C11.5238 16.5296 11.5238 16.8495 11.7217 17.0475Z" fill="black"/>
<path d="M11.0204 1.55437H11.7067C11.9867 1.55437 12.2129 1.32811 12.2129 1.04818C12.2129 0.768259 11.9867 0.541992 11.7067 0.541992H11.0204C10.7404 0.541992 10.5142 0.768259 10.5142 1.04818C10.5142 1.32811 10.7404 1.55437 11.0204 1.55437Z" fill="black"/>
<path d="M8.40463 1.55437H9.09102C9.37095 1.55437 9.59721 1.32811 9.59721 1.04818C9.59721 0.768259 9.37095 0.541992 9.09102 0.541992H8.40463C8.1247 0.541992 7.89844 0.768259 7.89844 1.04818C7.89844 1.32811 8.1247 1.55437 8.40463 1.55437Z" fill="black"/>
</svg>
