<svg width="85" height="70" viewBox="0 0 85 70" fill="none" xmlns="http://www.w3.org/2000/svg">
<circle cx="69.5" cy="15.5" r="15.5" fill="#C9B59B" fill-opacity="0.45"/>
<path d="M25.2754 0.98632C25.084 1.24609 25.0566 1.91601 25.0566 5.49804V9.70898H19.4375C13.8594 9.70898 13.4219 9.73632 13.1348 10.1738C13.0801 10.2559 13.0254 23.4902 13.0254 39.5957C13.0254 67.7734 13.0391 68.8809 13.2715 69.0859C13.5039 69.3047 15.4863 69.3184 39.0293 69.3184C63.5566 69.3184 64.541 69.3047 64.7461 69.0723C64.9648 68.8398 64.9785 66.5977 64.9785 39.5684C64.9785 23.4902 64.9238 10.2559 64.8691 10.1738C64.582 9.73632 64.1445 9.70898 58.5664 9.70898H52.9473V5.49804C52.9473 1.91601 52.9199 1.24609 52.7285 0.98632L52.5234 0.685539H39.002H25.4805L25.2754 0.98632ZM51.3066 6.01757V9.70898H39.002H26.6973V6.01757V2.32616H39.002H51.3066V6.01757ZM63.3379 39.5137V67.6777H60.6719H58.0059V44.9414C58.0059 24.584 57.9785 22.1777 57.7871 21.9043L57.582 21.6035H39.043C21.9805 21.6035 20.4766 21.6172 20.2441 21.8359C20.0117 22.041 19.998 22.9434 19.998 44.873V67.6777H17.332H14.666V39.5137V11.3496H39.002H63.3379V39.5137ZM38.1816 45.4609V67.6777H29.9102H21.6387V45.4609V23.2441H29.9102H38.1816V45.4609ZM56.3652 45.4609V67.6777H48.0938H39.8223V45.4609V23.2441H48.0938H56.3652V45.4609Z" fill="black"/>
<path d="M32.9178 2.72059C32.6991 2.85731 31.9608 3.56824 31.3046 4.27918C29.9921 5.71473 29.8963 5.98816 30.5389 6.46668C30.9764 6.78113 31.2635 6.67176 32.1385 5.83777L32.7128 5.27723V7.19129C32.7128 8.8866 32.7401 9.14637 32.9588 9.33777C33.287 9.63856 33.8475 9.62488 34.121 9.3241C34.3124 9.11902 34.3534 8.74988 34.3534 7.17762V5.2909L35.0917 6.00184C35.5018 6.38465 35.9393 6.6991 36.0624 6.6991C36.3495 6.6991 36.951 6.08387 36.951 5.78309C36.951 5.45496 33.9296 2.46082 33.6014 2.46082C33.451 2.46082 33.1503 2.5702 32.9178 2.72059Z" fill="black"/>
<path d="M43.8828 2.70703C43.6914 2.91211 43.6504 3.28125 43.6504 4.85352V6.74023L42.9121 6.0293C42.502 5.64648 42.0645 5.33203 41.9414 5.33203C41.6543 5.33203 41.0527 5.94727 41.0527 6.23438C41.0527 6.35742 41.7363 7.16406 42.584 8.02539C43.8281 9.2832 44.1836 9.57031 44.5117 9.57031C44.8262 9.57031 45.1816 9.2832 46.3984 8.03906C47.2188 7.19141 47.8887 6.39844 47.8887 6.24805C47.8887 5.94727 47.3008 5.33203 47 5.33203C46.877 5.33203 46.4395 5.64648 46.0293 6.0293L45.291 6.74023V4.82617C45.291 3.14453 45.2637 2.88477 45.0449 2.69336C44.7168 2.39258 44.1563 2.40625 43.8828 2.70703Z" fill="black"/>
<path d="M24.4404 12.6484L24.0986 12.9766V16.5449C24.0986 19.9219 24.1123 20.1133 24.3721 20.373C24.6455 20.6465 24.8232 20.6465 38.9873 20.6465C51.8525 20.6465 53.3564 20.6191 53.5478 20.4277C53.7393 20.25 53.7666 19.6895 53.7666 16.4766C53.7666 12.7578 53.7666 12.7305 53.4658 12.5254C53.1924 12.334 51.5928 12.3066 38.96 12.3066H24.7686L24.4404 12.6484ZM52.126 16.4766V19.0059H38.9326H25.7393V16.4766V13.9473H38.9326H52.126V16.4766Z" fill="black"/>
<path d="M15.9507 35.3137C14.8843 36.3664 14.7065 36.7902 15.1577 37.2414C15.5268 37.6242 16.0464 37.5012 16.6753 36.8859L17.2495 36.3254L17.8647 36.8859C18.7808 37.7336 19.6284 37.6379 19.6284 36.6809C19.6284 36.216 17.728 34.3156 17.2768 34.3156C17.0854 34.3156 16.5933 34.6848 15.9507 35.3137Z" fill="black"/>
<path d="M58.5526 34.5933C58.0741 35.0718 58.2108 35.3999 59.2636 36.4663C60.5897 37.7925 60.7265 37.7925 62.0663 36.4663C63.1327 35.3999 63.2558 35.0581 62.7909 34.5933C62.3808 34.1831 62.0116 34.2651 61.3144 34.9214L60.6718 35.5229L60.0292 34.9214C59.3183 34.2651 58.9628 34.1831 58.5526 34.5933Z" fill="black"/>
<path d="M16.5253 39.1042C15.9921 39.2683 15.6229 39.6237 15.3358 40.2663C14.994 41.0046 15.0077 41.6745 15.3905 42.3855C15.8143 43.1921 16.4296 43.5065 17.4413 43.4382C18.7401 43.3562 19.451 42.5769 19.451 41.2097C19.451 40.4577 19.1229 39.8151 18.494 39.3503C18.0839 39.0632 17.0721 38.9265 16.5253 39.1042ZM17.7421 40.9362C18.0702 41.4284 17.8104 41.8659 17.2225 41.8112C16.8807 41.7839 16.7714 41.7019 16.744 41.4558C16.6893 41.114 17.0585 40.6081 17.3456 40.6081C17.455 40.6081 17.6327 40.7585 17.7421 40.9362Z" fill="black"/>
<path d="M59.6461 39.2659C58.8121 39.6897 58.3609 40.5237 58.4703 41.4944C58.7027 43.6409 61.4781 44.2561 62.5718 42.3831C62.941 41.7542 62.941 40.6878 62.5718 40.0588C62.2711 39.512 61.314 38.9651 60.6714 38.9651C60.439 38.9651 59.9742 39.1018 59.6461 39.2659ZM61.0816 40.8792C61.5875 41.4397 60.7535 42.2053 60.2203 41.6721C59.9879 41.4397 60.0152 41.1526 60.2886 40.8518C60.5757 40.5374 60.7808 40.5374 61.0816 40.8792Z" fill="black"/>
<path d="M16.3752 45.0391C15.801 45.2851 15.2404 45.9824 15.1311 46.5703C14.8713 47.9785 15.6643 49.1269 17.0178 49.3047C18.8088 49.5508 20.0393 47.6367 19.1779 45.9551C18.7131 45.0391 17.3733 44.6016 16.3752 45.0391ZM17.7287 46.707C18.0022 46.9668 18.0022 47.0351 17.7287 47.418C17.2912 48.0332 16.5119 47.5273 16.8264 46.8437C17.0041 46.4473 17.4143 46.3789 17.7287 46.707Z" fill="black"/>
<path d="M59.9471 44.9405C59.4685 45.0362 58.7303 45.8155 58.5525 46.4444C58.2244 47.5109 58.7166 48.6456 59.6873 49.0831C60.4392 49.4386 60.9588 49.4249 61.6971 49.0421C62.4764 48.6593 62.8455 48.0167 62.8455 47.1007C62.8455 45.5558 61.6014 44.6261 59.9471 44.9405ZM61.0682 46.7042C61.1912 46.8136 61.2869 47.005 61.2869 47.1007C61.2869 47.3194 60.9178 47.7159 60.7264 47.7159C60.4529 47.7159 60.0564 47.4288 60.0564 47.2237C60.0564 46.5812 60.6443 46.2667 61.0682 46.7042Z" fill="black"/>
<path d="M35.7617 37.475C35.5977 37.5297 35.4062 37.7074 35.3242 37.8578C35.2148 38.0356 35.1738 40.5512 35.1738 45.5278V52.9242L35.5156 53.266C35.7754 53.5258 35.9395 53.5805 36.1719 53.5121C36.8418 53.3071 36.8145 53.6215 36.8145 45.4594C36.8145 39.4711 36.7734 37.7348 36.6504 37.6391C36.3496 37.4067 36.0762 37.352 35.7617 37.475Z" fill="black"/>
<path d="M41.5724 37.516L41.2579 37.6801L41.2169 45.4184C41.1895 53.6352 41.1622 53.3071 41.8321 53.5121C42.0645 53.5805 42.2286 53.5258 42.4884 53.266L42.8302 52.9242V45.5004C42.8302 39.184 42.8028 38.0219 42.6251 37.7758C42.3653 37.4203 41.9825 37.311 41.5724 37.516Z" fill="black"/>
<circle cx="5" cy="59.7695" r="5" fill="#C9B59B"/>
</svg>
