<svg width="77" height="78" viewBox="0 0 77 78" fill="none" xmlns="http://www.w3.org/2000/svg">
<circle cx="61.5" cy="59.5005" r="15.5" fill="#C9B59B" fill-opacity="0.45"/>
<path d="M29.8047 10.4746C26.4687 11.1855 23.748 14.043 23.1465 17.4746L22.9277 18.6914L22.1621 19.0469C16.9941 21.4258 12.6738 26.4434 10.8828 32.1172C9.9668 35.002 9.95312 35.1934 9.85742 43.5469C9.76172 51.0391 9.74805 51.2168 9.44726 52.1602C9.02344 53.418 8.43555 54.5938 7.7793 55.4551L7.24609 56.1523L6.20703 56.2344C4.19727 56.3848 2.58398 57.4785 1.66797 59.3105C1.18945 60.2949 1.16211 60.418 1.16211 61.6621C1.16211 62.9062 1.18945 63.0293 1.66797 64.0137C2.2832 65.2578 3.07617 66.0234 4.34766 66.625L5.26367 67.0625L12.4961 67.1309L19.7422 67.1992L19.9199 68.2656C20.5352 71.957 23.2285 75.4023 26.7422 76.9883C28.4785 77.7812 29.5449 78 31.7187 78C33.8926 78 34.959 77.7812 36.709 76.9883C40.209 75.4023 42.9023 71.957 43.5176 68.2656L43.6953 67.1992L50.9414 67.1309L58.1738 67.0625L59.0898 66.625C60.3613 66.0234 61.1543 65.2578 61.7695 64.0137C62.248 63.0293 62.2754 62.9062 62.2754 61.6621C62.2754 60.418 62.248 60.2949 61.7695 59.3105C60.8535 57.4785 59.2402 56.3848 57.2305 56.2344L56.1914 56.1523L55.6582 55.4551C55.0019 54.5938 54.4141 53.418 53.9902 52.1602C53.6758 51.2168 53.6758 51.0664 53.5937 43.6836C53.498 35.6035 53.4707 35.2617 52.7051 32.623C51.0234 26.8262 46.8535 21.7949 41.6172 19.2246L40.5098 18.6777L40.2773 17.4473C39.3613 12.5391 34.6719 9.42188 29.8047 10.4746ZM33.291 12.6484C35.5742 13.25 37.5566 15.2188 38.0898 17.4199C38.1719 17.7754 38.1582 17.8027 37.9258 17.7207C37.7891 17.6523 36.9277 17.4473 36.0254 17.2559C34.5762 16.9414 34.0703 16.9004 31.7187 16.9004C29.3672 16.9004 28.8613 16.9414 27.4121 17.2559C26.5098 17.4473 25.6484 17.6523 25.5117 17.7207C25.2793 17.8027 25.2656 17.7754 25.3477 17.4199C25.4023 17.2012 25.6484 16.5859 25.9082 16.0527C27.207 13.373 30.4062 11.9102 33.291 12.6484ZM35.3828 19.334C42.4238 20.7695 48.1387 25.7598 50.3809 32.4453C51.2832 35.1387 51.2969 35.3164 51.4062 43.6836C51.5019 52.4336 51.5019 52.3652 52.7461 54.8535L53.416 56.1934H31.7187H10.0215L10.6914 54.8535C11.9355 52.3652 11.9355 52.4336 12.0312 43.6836C12.127 36.6973 12.1543 35.918 12.4004 34.7969C13.3027 30.7773 15.0254 27.6191 17.8418 24.8164C20.9727 21.6719 24.8281 19.7578 29.1895 19.1562C30.4746 18.9785 34.1387 19.0879 35.3828 19.334ZM57.8867 58.5449C59.0625 58.9004 60.1562 60.4043 60.1562 61.6621C60.1562 62.9199 59.0625 64.4238 57.8867 64.7793C57.0664 65.0254 6.37109 65.0254 5.55078 64.7793C4.79883 64.5605 3.66406 63.4258 3.44531 62.6738C3.0625 61.3887 3.33594 60.3633 4.30664 59.4062C4.67578 59.0234 5.20898 58.6406 5.46875 58.5586C6.19336 58.3262 57.1074 58.3262 57.8867 58.5449ZM41.3711 67.8418C41.1523 69.4141 40.1269 71.4375 38.8418 72.7773C34.8769 76.9336 28.3555 76.8652 24.459 72.627C23.2012 71.2461 22.2852 69.4141 22.0664 67.8281L21.9707 67.1309H31.7187H41.4668L41.3711 67.8418Z" fill="black"/>
<path d="M29.8871 20.4156C29.6137 20.6891 29.5726 20.9078 29.4906 22.3844C29.3402 25.1461 28.6703 27.9899 27.6312 30.2867C27.3851 30.8063 27.1664 31.2574 27.139 31.2985C27.098 31.3258 26.2504 30.5465 25.2387 29.5621C23.7074 28.0446 23.3656 27.7574 23.0101 27.7574C22.7777 27.7574 22.4633 27.8668 22.2992 27.9899C21.807 28.4137 20.7816 31.5856 20.2484 34.3199C19.6058 37.6969 19.5101 42.8102 20.057 44.7789C20.9457 47.9098 22.7094 50.3571 25.3344 52.066C30.0238 55.1285 36.2172 54.4586 40.2094 50.4664C41.7406 48.9352 42.807 47.0348 43.4222 44.7653C43.7777 43.4801 43.7777 39.4742 43.4359 37.6696C42.9301 35.0856 41.6039 31.4899 41.0433 31.1891C40.2504 30.7653 39.6215 31.1617 39.307 32.2418C38.9789 33.4039 38.1176 35.0856 37.2972 36.1656C36.723 36.9176 36.559 37.0543 36.5316 36.8356C36.5043 36.6852 36.6547 35.3317 36.8461 33.8278C37.0375 32.3102 37.1879 30.7242 37.1879 30.2731C37.1742 28.3727 36.4496 25.9664 35.4242 24.4078C34.5902 23.1364 33.975 22.4938 32.4301 21.2496C30.8578 19.9918 30.4476 19.8551 29.8871 20.4156ZM32.6488 24.4078C34.057 25.9117 34.9867 28.2223 35.0004 30.2184C35.0004 30.6285 34.7543 32.9391 34.4535 35.3317C34.1527 37.7242 33.9066 39.816 33.9066 39.9528C33.9066 40.3492 34.5219 40.8824 34.973 40.8824C35.8344 40.8824 38.6371 38.2711 39.8402 36.3297C40.2914 35.6051 40.5512 35.318 40.6058 35.441C40.8246 35.8239 41.2894 38.0114 41.4398 39.3102C41.7953 42.2906 41.3988 44.8063 40.2777 46.8024C39.8129 47.65 38.514 49.2223 38.2816 49.2223C38.2269 49.2223 38.1449 48.8395 38.0902 48.3746C37.9672 47.1715 37.2015 45.025 36.4222 43.7262C35.5199 42.2223 33.6469 40.3356 32.1293 39.4059C30.8441 38.6129 30.3656 38.5309 29.8871 39.0094C29.6137 39.2828 29.559 39.5153 29.4906 40.7594C29.4086 42.0992 29.0668 44.2594 28.9301 44.4098C28.889 44.4371 28.1097 43.9176 27.1937 43.2203C25.348 41.8531 24.9789 41.7301 24.4047 42.318C24.1176 42.5914 24.0629 42.7828 24.0629 43.4254C24.0629 44.5465 24.432 46.816 24.8012 48.0328C24.9789 48.6207 25.0883 49.0856 25.0199 49.0582C24.7328 48.9489 23.598 47.4176 23.1195 46.5016C22.2172 44.7379 21.9847 43.8219 21.9164 41.4703C21.7933 38.0114 22.2445 34.4703 23.2015 31.5446L23.4066 30.8746L25.143 32.5973C27.5082 34.9352 27.7133 34.9215 28.9574 32.5426C30.1879 30.2047 31.1312 27.2516 31.473 24.736C31.5551 24.066 31.6781 23.5192 31.7328 23.5192C31.7875 23.5192 32.1976 23.9156 32.6488 24.4078ZM32.9222 42.8102C34.8226 44.7106 35.8617 46.9938 36.0531 49.7008L36.1351 50.8356L35.3969 51.109C33.9203 51.6559 33.4418 51.7379 31.7191 51.7242C29.4086 51.7106 28.766 51.5328 28.3012 50.7125C27.4672 49.3043 26.3734 46.1735 26.5512 45.6676C26.5785 45.5856 27.1801 45.9547 27.8773 46.4879C29.2582 47.5133 29.6683 47.6364 30.2152 47.1989C30.5707 46.9117 31.1996 44.7926 31.4594 42.9742C31.6644 41.5114 31.6234 41.5114 32.9222 42.8102Z" fill="black"/>
<path d="M4.60742 18.2271C3.48633 19.3481 2.26953 21.0161 1.58594 22.397C0.697266 24.1743 0 27.0864 0 29.0825V29.9438H1.09375H2.1875V29.0688C2.1875 27.9478 2.50195 26.1567 2.91211 24.9536C3.5957 22.9438 4.59375 21.3716 6.16602 19.7856L7.21875 18.7329L6.57617 17.9126C6.23438 17.4751 5.90625 17.106 5.83789 17.0923C5.7832 17.0923 5.23633 17.5981 4.60742 18.2271Z" fill="black"/>
<path d="M12.1554 18.1735C8.61437 21.1266 5.93468 25.6246 4.99132 30.1774C4.74523 31.4078 4.34875 35.1539 4.45812 35.2633C4.52648 35.3317 6.42687 35.5367 6.52257 35.482C6.53625 35.482 6.61828 34.7711 6.70031 33.9098C7.11046 29.6031 8.04015 26.8004 10.0636 23.7652C10.9386 22.4391 12.8116 20.402 14.1378 19.3219L14.8077 18.775L14.2198 17.941C13.9054 17.4762 13.5909 17.0934 13.5362 17.0934C13.4816 17.0934 12.8663 17.5719 12.1554 18.1735Z" fill="black"/>
<path d="M49.2188 17.941L48.6309 18.775L49.3008 19.3219C50.627 20.402 52.5 22.4391 53.375 23.7652C55.3984 26.8004 56.3281 29.6031 56.7383 33.9098C56.8203 34.7711 56.9023 35.482 56.916 35.482C57.0117 35.5367 58.9121 35.3317 58.9805 35.2633C59.1172 35.1402 58.666 31.2574 58.3789 29.9313C57.9961 28.1676 57.5039 26.7867 56.5879 24.9547C55.5625 22.8902 54.291 21.0992 52.7051 19.486C51.6387 18.4059 50.0801 17.0934 49.875 17.0934C49.834 17.0934 49.5332 17.4762 49.2188 17.941Z" fill="black"/>
<path d="M56.8604 17.9126L56.2178 18.7329L57.2705 19.7856C58.8428 21.3716 59.8408 22.9438 60.5244 24.9536C60.9346 26.1567 61.249 27.9478 61.249 29.0688V29.9438H62.3428H63.4365V29.0825C63.4365 27.0864 62.7393 24.1743 61.8506 22.397C61.167 21.0161 59.9502 19.3481 58.8291 18.2271C58.2002 17.5981 57.6533 17.0923 57.5986 17.0923C57.5303 17.106 57.2021 17.4751 56.8604 17.9126Z" fill="black"/>
<circle cx="10" cy="5.00049" r="5" fill="#C9B59B"/>
</svg>
