<svg width="27" height="30" viewBox="0 0 27 30" fill="none" xmlns="http://www.w3.org/2000/svg">
<path d="M0.774771 22.0549L0.774074 22.0552C0.721804 22.0813 0.677805 22.1214 0.647044 22.1711C0.616286 22.2208 0.6 22.2781 0.6 22.3365C0.6 22.3949 0.616297 22.4522 0.647044 22.5019C0.677776 22.5516 0.721755 22.5917 0.774073 22.6178L0.774709 22.6181L13.3587 28.9082L13.3593 28.9085C13.4029 28.9304 13.4511 28.9418 13.5 28.9418C13.5489 28.9418 13.5971 28.9304 13.6408 28.9085L13.6413 28.9083L26.2247 22.6165C26.2248 22.6165 26.2249 22.6164 26.225 22.6164C26.277 22.5902 26.3208 22.5502 26.3513 22.5007C26.382 22.451 26.3982 22.3939 26.3982 22.3356C26.3982 22.2773 26.382 22.2201 26.3513 22.1705C26.3207 22.1209 26.2768 22.0807 26.2247 22.0546L22.6427 20.2636L14.1784 24.4957L0.774771 22.0549ZM0.774771 22.0549L4.35734 20.2636L12.8216 24.4957C12.8217 24.4958 12.8219 24.4959 12.8221 24.496C13.0326 24.6014 13.2647 24.6562 13.5 24.6562C13.7353 24.6562 13.9674 24.6014 14.1779 24.496L0.774771 22.0549Z" stroke="black" stroke-width="1.2"/>
<path d="M26.2253 7.42469L26.2259 7.425C26.2782 7.45106 26.3222 7.49119 26.3529 7.54085L26.353 7.54092C26.3837 7.5906 26.4 7.64784 26.4 7.70627C26.4 7.76472 26.3837 7.822 26.353 7.87165L26.353 7.87168C26.3222 7.92133 26.2782 7.96148 26.2259 7.98754L26.2252 7.98788L13.6413 14.2799L13.6408 14.2801C13.5971 14.302 13.5489 14.3134 13.5 14.3134C13.4511 14.3134 13.4029 14.302 13.3593 14.2801L13.3587 14.2798L0.774709 7.98968L0.774073 7.98936C0.721754 7.96329 0.677776 7.92317 0.647044 7.87352C0.616297 7.82384 0.6 7.76655 0.6 7.7081C0.6 7.64968 0.616286 7.59241 0.647044 7.54272C0.677804 7.49301 0.721803 7.45289 0.774073 7.42684L0.774771 7.42649L13.3587 1.13452L13.3592 1.13428C13.4029 1.11238 13.4511 1.10098 13.5 1.10098C13.5489 1.10098 13.5971 1.11238 13.6408 1.13428L13.6413 1.13455L26.2253 7.42469Z" stroke="black" stroke-width="1.2"/>
<path d="M0.774771 14.7404L0.774074 14.7408C0.721802 14.7668 0.677804 14.8069 0.647044 14.8566C0.616286 14.9063 0.6 14.9636 0.6 15.022C0.6 15.0805 0.616286 15.1377 0.647044 15.1874C0.677805 15.2371 0.721804 15.2772 0.774073 15.3033L0.774709 15.3036L13.3587 21.5938L13.3592 21.594C13.4029 21.6159 13.4512 21.6273 13.5 21.6273C13.5488 21.6273 13.5971 21.6159 13.6409 21.594L13.6413 21.5938L26.2247 15.3021C26.2248 15.302 26.2249 15.302 26.225 15.3019C26.277 15.2758 26.3208 15.2357 26.3513 15.1862C26.382 15.1366 26.3982 15.0794 26.3982 15.0211C26.3982 14.9629 26.382 14.9057 26.3513 14.856C26.3207 14.8064 26.2768 14.7663 26.2247 14.7402L22.6427 12.9491L14.1783 17.1813L0.774771 14.7404ZM0.774771 14.7404L4.35734 12.9491L12.8217 17.1813C13.0322 17.2868 13.2644 17.3417 13.5 17.3417C13.7354 17.3417 13.9675 17.2868 14.1779 17.1815L0.774771 14.7404Z" stroke="black" stroke-width="1.2"/>
</svg>
