<svg width="24" height="24" viewBox="0 0 24 24" fill="none" xmlns="http://www.w3.org/2000/svg">
<path d="M4.22933 16.8545C2.23409 17.4531 1 18.28 1 19.1934C1 21.0201 5.93634 22.501 12.0256 22.501C18.1149 22.501 23.0513 21.0201 23.0513 19.1934C23.0513 18.28 21.8172 17.4531 19.8219 16.8545" stroke="#12192C" stroke-width="1.57692" stroke-linecap="round" stroke-linejoin="round"/>
<path d="M12.026 18.0897C12.026 18.0897 19.1927 13.406 19.1927 7.99124C19.1927 4.13009 15.9841 1 12.026 1C8.068 1 4.85938 4.13009 4.85938 7.99124C4.85938 13.406 12.026 18.0897 12.026 18.0897Z" stroke="#12192C" stroke-width="1.57692" stroke-linejoin="round"/>
<path d="M12.0259 10.923C13.5482 10.923 14.7823 9.68887 14.7823 8.16656C14.7823 6.64426 13.5482 5.41016 12.0259 5.41016C10.5036 5.41016 9.26953 6.64426 9.26953 8.16656C9.26953 9.68887 10.5036 10.923 12.0259 10.923Z" stroke="#12192C" stroke-width="1.57692" stroke-linejoin="round"/>
</svg>
