<svg width="100" height="71" viewBox="0 0 100 71" fill="none" xmlns="http://www.w3.org/2000/svg">
<g clip-path="url(#clip0_52_398)">
<path d="M59.03 66.0327C59.7788 65.7778 60.2927 65.3476 60.6233 64.9812C61.3442 64.1845 61.7386 63.0693 61.7386 61.8146C61.7386 60.5599 61.3482 59.4247 60.6233 58.628C60.0696 57.9987 59.0101 57.2578 57.2017 57.2578H53.127V70.9997H55.2739V66.3514H56.8472L60.3126 70.9997H62.7383L59.03 66.0327ZM57.2017 64.4275H55.2739V59.2016H57.2017C58.09 59.2016 58.7592 59.4446 59.1814 59.9226C59.7032 60.4842 59.7908 61.2609 59.7908 61.8146C59.7908 62.3682 59.7032 63.129 59.1814 63.6827C58.7592 64.1686 58.094 64.4315 57.2017 64.4315" fill="#203F7B"/>
<path d="M77.7941 61.4401C77.4396 60.6236 76.9616 59.9026 76.3243 59.2574C75.6791 58.628 74.9541 58.15 74.1416 57.7955C73.2892 57.445 72.385 57.2578 71.4569 57.2578C70.5288 57.2578 69.6207 57.445 68.7882 57.7916C67.9557 58.1461 67.2308 58.624 66.6014 59.2534C65.9721 59.8987 65.4742 60.6236 65.1197 61.4362C64.7652 62.2886 64.5859 63.1967 64.5859 64.1248C64.5859 65.0529 64.7652 65.961 65.1197 66.7895C65.4742 67.622 65.9721 68.347 66.6014 68.9803C67.2308 69.6096 67.9517 70.1075 68.7882 70.462C69.6207 70.8125 70.5328 70.9958 71.4569 70.9958C72.381 70.9958 73.2852 70.8086 74.1376 70.462C74.9541 70.1075 75.6751 69.6096 76.3204 68.9803C76.9537 68.347 77.4356 67.622 77.7901 66.7895C78.1407 65.961 78.3239 65.0529 78.3239 64.1248C78.3239 63.1967 78.1367 62.2886 77.7901 61.4362M74.7829 67.4587C73.8986 68.343 72.7116 68.8449 71.4529 68.8449C70.1942 68.8449 69.0073 68.343 68.115 67.4587C67.2228 66.5705 66.7249 65.3795 66.7249 64.1208C66.7249 62.8621 67.2228 61.6751 68.115 60.7829C69.0033 59.8947 70.1863 59.3968 71.4529 59.3968C72.7196 59.3968 73.8986 59.8947 74.7829 60.7829C75.6711 61.6712 76.177 62.8621 76.177 64.1208C76.177 65.3795 75.6711 66.5665 74.7829 67.4587Z" fill="#203F7B"/>
<path d="M88.346 66.3709C88.1429 65.7335 87.7446 65.1281 87.1551 64.5944C86.8683 64.3235 86.462 63.9371 86.1354 63.6105L83.8689 61.4357C83.2993 60.882 83.2794 60.4638 83.3511 60.2049C83.4627 59.8225 83.8689 59.5118 84.339 59.4202C84.7213 59.3485 85.4383 59.3485 86.1354 60.189L87.7963 58.8546C87.2666 58.2173 86.6452 57.7553 85.9521 57.4844C85.2949 57.2454 84.6018 57.1896 83.9446 57.337C83.3352 57.4486 82.7696 57.7194 82.3155 58.1058C81.8176 58.524 81.4751 59.0418 81.3078 59.6234C81.1405 60.1691 81.1604 60.7745 81.3436 61.3441C81.5268 61.9296 81.8734 62.4753 82.3872 62.9732L84.0442 64.5386C84.1199 64.6143 85.1077 65.5822 85.7092 66.1478C86.0955 66.5182 86.5138 67.0639 86.3305 67.6853C86.1712 68.239 85.5976 68.693 84.9046 68.8205C84.5063 68.9121 84.0641 68.8763 83.6618 68.709C83.1719 68.5258 82.7098 68.1633 82.3275 67.6455L80.6426 68.9679C81.2839 69.7924 82.0327 70.358 82.8931 70.7006C83.4029 70.9037 83.9566 70.9953 84.5023 70.9953C84.7731 70.9953 85.048 70.9754 85.3268 70.9196C86.8085 70.6249 87.9955 69.5853 88.3819 68.2708C88.5611 67.6455 88.5412 66.9882 88.346 66.3669" fill="#203F7B"/>
<path d="M93.5805 59.1817H99.6748V57.2578H91.4336V70.9997H99.6748V69.0599H93.5805V64.794H98.6033V62.8542H93.5805V59.1817Z" fill="#203F7B"/>
<path d="M2.14693 57.2578H0V70.9997H2.14693V57.2578Z" fill="#7E8386"/>
<path d="M17.9195 70.9997V57.2578L11.4588 66.8851L4.99414 57.2578V70.9997H7.14107V64.3279L11.4588 70.7369L15.7527 64.3279V70.9997H17.9195Z" fill="#7E8386"/>
<path d="M33.695 70.9997V57.2578L27.2343 66.8851L20.7656 57.2578V70.9997H22.9126V64.3279L27.2343 70.7369L31.5281 64.3279V70.9997H33.695Z" fill="#7E8386"/>
<path d="M43.4081 70.9997C44.3362 70.9997 45.2364 70.8125 46.0887 70.466C46.9053 70.1115 47.6263 69.6136 48.2755 68.9843C48.9088 68.3509 49.3908 67.626 49.7453 66.7935C50.0958 65.965 50.279 65.0569 50.279 64.1288C50.279 63.2007 50.0918 62.2925 49.7453 61.4401C49.3908 60.6236 48.9128 59.9026 48.2755 59.2574C47.6302 58.628 46.9053 58.15 46.0887 57.7955C45.2364 57.445 44.3362 57.2578 43.4081 57.2578C42.48 57.2578 41.5718 57.445 40.7394 57.7916C39.9069 58.1461 39.1819 58.624 38.5526 59.2534C37.9233 59.8987 37.4254 60.6236 37.0709 61.4362C36.7164 62.2886 36.5371 63.1967 36.5371 64.1248C36.5371 65.0529 36.7164 65.961 37.0709 66.7895C37.4254 67.622 37.9233 68.347 38.5526 68.9803C39.1819 69.6096 39.9029 70.1075 40.7394 70.462C41.5718 70.8125 42.484 70.9958 43.4081 70.9958M43.4081 59.4008C44.6668 59.4008 45.8537 59.8987 46.738 60.7869C47.6302 61.6751 48.1321 62.8661 48.1321 64.1248C48.1321 65.3835 47.6302 66.5705 46.738 67.4627C45.8537 68.347 44.6668 68.8488 43.4081 68.8488C42.1494 68.8488 40.9624 68.347 40.0702 67.4627C39.1819 66.5744 38.684 65.3835 38.684 64.1248C38.684 62.8661 39.1819 61.6791 40.0702 60.7869C40.9584 59.8987 42.1414 59.4008 43.4081 59.4008Z" fill="#7E8386"/>
</g>
<g clip-path="url(#clip1_52_398)">
<path d="M33.4102 8.94238L52.8799 18.7489V48.5391L33.4102 38.7325V8.94238Z" fill="#9BA6A5"/>
<path d="M46.7949 9.69531L66.2647 19.4979V49.292L46.7949 39.4854V9.69531Z" fill="#7E8386"/>
<mask id="mask0_52_398" style="mask-type:luminance" maskUnits="userSpaceOnUse" x="40" y="0" width="20" height="40">
<path d="M40.1953 0L59.665 9.80656V39.5967L40.1953 29.7901V0Z" fill="white"/>
</mask>
<g mask="url(#mask0_52_398)">
<path d="M59.665 0H40.1953V39.5967H59.665V0Z" fill="url(#paint0_linear_52_398)"/>
</g>
</g>
<defs>
<linearGradient id="paint0_linear_52_398" x1="49.5967" y1="39.9211" x2="49.5967" y2="5.19182" gradientUnits="userSpaceOnUse">
<stop stop-color="#0F1029"/>
<stop offset="1" stop-color="#203F7B"/>
</linearGradient>
<clipPath id="clip0_52_398">
<rect width="99.6748" height="13.7419" fill="white" transform="translate(0 57.2578)"/>
</clipPath>
<clipPath id="clip1_52_398">
<rect width="32.8532" height="49.2917" fill="white" transform="translate(33.4102)"/>
</clipPath>
</defs>
</svg>
