<svg width="94" height="95" viewBox="0 0 94 95" fill="none" xmlns="http://www.w3.org/2000/svg">
<path d="M93.5 76.5C93.5 78.8695 92.282 81.1796 89.9659 83.335C87.649 85.4911 84.2692 87.4558 80.0509 89.1162C71.6173 92.4358 59.9322 94.5 47 94.5C34.0678 94.5 22.3827 92.4358 13.9491 89.1162C9.7308 87.4558 6.35098 85.4911 4.03412 83.335C1.71797 81.1796 0.5 78.8695 0.5 76.5C0.5 74.1305 1.71797 71.8204 4.03412 69.665C6.35098 67.5089 9.7308 65.5442 13.9491 63.8838C22.3827 60.5642 34.0678 58.5 47 58.5C59.9322 58.5 71.6173 60.5642 80.0509 63.8838C84.2692 65.5442 87.649 67.5089 89.9659 69.665C92.282 71.8204 93.5 74.1305 93.5 76.5Z" fill="#D7E2EE" fill-opacity="0.47" stroke="#12192C"/>
<path d="M47.0519 0C31.5575 0 19 12.7711 19 28.5293C19 44.2874 47.0519 71.6883 47.0519 71.6883C47.0519 71.6883 75.1039 44.2742 75.1039 28.5293C75.1039 12.7844 62.5464 0 47.0519 0ZM47.0519 41.8713C39.5592 41.8713 33.4894 35.6981 33.4894 28.0779C33.4894 20.4577 39.5592 14.2846 47.0519 14.2846C54.5447 14.2846 60.6145 20.4577 60.6145 28.0779C60.6145 35.6981 54.5447 41.8713 47.0519 41.8713Z" fill="#12192C"/>
<circle cx="46.5326" cy="28.5717" r="16.1039" fill="#F7F5F0"/>
<circle cx="47.0516" cy="77.9217" r="2.07792" fill="#12192C"/>
<g clip-path="url(#clip0_463_1063)">
<path d="M38.7402 20.1074L48.5893 25.0682V40.1381L38.7402 35.1773V20.1074Z" fill="#9BA6A5"/>
<path d="M45.5107 20.4883L55.3598 25.4471V40.5189L45.5107 35.5581V20.4883Z" fill="#7E8386"/>
<mask id="mask0_463_1063" style="mask-type:luminance" maskUnits="userSpaceOnUse" x="42" y="15" width="11" height="21">
<path d="M42.1719 15.5859L52.021 20.5468V35.6166L42.1719 30.6558V15.5859Z" fill="white"/>
</mask>
<g mask="url(#mask0_463_1063)">
<path d="M52.021 15.5859H42.1719V35.6166H52.021V15.5859Z" fill="url(#paint0_linear_463_1063)"/>
</g>
</g>
<defs>
<linearGradient id="paint0_linear_463_1063" x1="46.9277" y1="35.7807" x2="46.9277" y2="18.2123" gradientUnits="userSpaceOnUse">
<stop stop-color="#0F1029"/>
<stop offset="1" stop-color="#203F7B"/>
</linearGradient>
<clipPath id="clip0_463_1063">
<rect width="16.6193" height="24.9351" fill="white" transform="translate(38.7402 15.584)"/>
</clipPath>
</defs>
</svg>
