<svg width="19" height="20" viewBox="0 0 19 20" fill="none" xmlns="http://www.w3.org/2000/svg">
<path d="M16.2972 1.73242H2.24031C1.55531 1.73242 1 2.28773 1 2.97273V17.0296C1 17.7146 1.55531 18.2699 2.24031 18.2699H16.2972C16.9822 18.2699 17.5375 17.7146 17.5375 17.0296V2.97273C17.5375 2.28773 16.9822 1.73242 16.2972 1.73242Z" stroke="#12192C" stroke-width="1.58" stroke-linejoin="round"/>
<path d="M14.7811 11.3799L11.5654 12.758" stroke="#12192C" stroke-width="1.58" stroke-linecap="round" stroke-linejoin="round"/>
<path d="M7.89043 14.1357L4.6748 15.5139" stroke="#12192C" stroke-width="1.58" stroke-linecap="round" stroke-linejoin="round"/>
<path d="M5.59395 12.2984C6.5127 10.9684 6.97207 10.0496 6.97207 9.54219C6.97207 8.78105 6.35508 8.16406 5.59395 8.16406C4.83281 8.16406 4.21582 8.78105 4.21582 9.54219C4.21582 10.0496 4.6752 10.9684 5.59395 12.2984Z" stroke="#12192C" stroke-width="1.58" stroke-linejoin="round"/>
<path d="M12.9436 9.08262C13.8623 7.75254 14.3217 6.83379 14.3217 6.32637C14.3217 5.56523 13.7047 4.94824 12.9436 4.94824C12.1824 4.94824 11.5654 5.56523 11.5654 6.32637C11.5654 6.83379 12.0248 7.75254 12.9436 9.08262Z" stroke="#12192C" stroke-width="1.58" stroke-linejoin="round"/>
</svg>
