<svg width="29" height="28" viewBox="0 0 29 28" fill="none" xmlns="http://www.w3.org/2000/svg">
<path d="M22.3375 7.5687H22.3375C23.3529 7.5687 24.1794 6.74224 24.1794 5.72678C24.1794 4.71132 23.3529 3.88486 22.3375 3.88486H20.1601C19.8643 3.88486 19.6246 4.12451 19.6246 4.42034V10.5171C19.6246 10.8129 19.8643 11.0525 20.1601 11.0525C20.4559 11.0525 20.6956 10.8129 20.6956 10.5171V7.56857L22.3375 7.5687ZM23.1084 5.72678C23.1084 6.15168 22.7624 6.49774 22.3375 6.49774H20.6956V4.95582H22.3375C22.7624 4.95582 23.1084 5.30188 23.1084 5.72678Z" fill="black" stroke="black" stroke-width="0.2"/>
<path d="M7.75213 10.1336L7.752 10.1336C7.68149 10.1655 7.60648 10.1817 7.53111 10.1817C7.404 10.1817 7.27812 10.1363 7.17893 10.0492C7.17888 10.0491 7.17884 10.0491 7.1788 10.0491L3.69518 7.00103L3.69512 7.00098L3.76097 6.92572C3.66625 6.84297 3.61182 6.72322 3.61182 6.59801C3.61182 6.47281 3.66625 6.35305 3.76097 6.27031L7.75213 10.1336ZM7.75213 10.1336C7.94327 10.0467 8.06659 9.85664 8.06659 9.64623V8.43979H12.757C13.0528 8.43979 13.2925 8.20015 13.2925 7.90432V5.29144C13.2925 4.99561 13.0528 4.75596 12.757 4.75596H8.06659V3.54952C8.06659 3.33912 7.94327 3.14907 7.75213 3.06219C7.56062 2.97514 7.33586 3.00865 7.17793 3.14647L7.17783 3.14657L3.69518 6.195L7.75213 10.1336ZM7.2448 9.97394C7.32536 10.0447 7.4277 10.0817 7.53111 10.0817C7.59208 10.0817 7.65305 10.0687 7.71075 10.0425C7.86643 9.97176 7.96659 9.81717 7.96659 9.64623V8.43979L7.2448 9.97394ZM6.99564 4.72916V5.29155C6.99564 5.58738 7.23529 5.82703 7.53112 5.82703H12.2215V7.36895H7.53112C7.23529 7.36895 6.99564 7.6086 6.99564 7.90443V8.46682L4.85998 6.59799L6.99564 4.72916Z" fill="black" stroke="black" stroke-width="0.2"/>
<path d="M1.96982 24.3525H3.56772C3.81692 23.113 4.91176 22.1751 6.22461 22.1751C7.53746 22.1751 8.6323 23.113 8.8815 24.3525H20.5515C20.8007 23.113 21.8955 22.1751 23.2084 22.1751C24.5212 22.1751 25.6161 23.113 25.8653 24.3525H27.0276V22.3198C27.0276 21.9226 26.8325 21.5518 26.5071 21.3288L26.5069 21.3287L25.1475 20.3916C25.1474 20.3915 25.1473 20.3915 25.1473 20.3914L25.1471 20.3913L25.2039 20.309C24.6062 19.9007 24.0585 19.3531 23.5284 18.6367L1.96982 24.3525ZM1.96982 24.3525V23.5729C1.96982 22.5726 2.68127 21.7136 3.66932 21.5286L3.67082 21.5283L8.30032 20.5883L1.96982 24.3525ZM25.7542 19.5079L25.7538 19.5077C25.2491 19.1627 24.7767 18.6902 24.3103 18.0589L24.3102 18.0588C23.919 17.5316 23.4257 17.1015 22.8742 16.7742V13.5149C25.8577 12.8676 28.1 10.2077 28.1 7.03331C28.1 3.37663 25.1243 0.400977 21.4677 0.400977C17.811 0.400977 14.8353 3.37663 14.8353 7.03331C14.8353 10.2085 17.0778 12.8686 20.0611 13.515V16.0784H15.4013C14.6535 16.0784 13.9232 16.2849 13.2911 16.6758L9.23784 19.1726C9.23769 19.1727 9.23753 19.1728 9.23737 19.1729C9.02012 19.3034 8.78594 19.3958 8.5617 19.4423C8.56159 19.4423 8.56149 19.4424 8.56139 19.4424L3.46598 20.4774C3.46572 20.4774 3.46546 20.4775 3.4652 20.4775C1.97897 20.7567 0.9 22.0575 0.9 23.5729V24.888C0.9 25.1838 1.13965 25.4235 1.43548 25.4235H3.56777C3.81698 26.663 4.91181 27.6009 6.22467 27.6009C7.53752 27.6009 8.63235 26.663 8.88156 25.4235H20.5515C20.8008 26.663 21.8956 27.6009 23.2084 27.6009C24.5213 27.6009 25.6161 26.663 25.8653 25.4235H27.5632C27.8591 25.4235 28.0987 25.1838 28.0987 24.888V22.3187C28.0987 21.5685 27.7301 20.8668 27.1137 20.4452C27.1137 20.4452 27.1137 20.4451 27.1136 20.4451L25.7542 19.5079ZM13.8535 17.5874L13.8536 17.5873C14.3168 17.301 14.8516 17.1494 15.4004 17.1494H20.3778C20.8703 17.1494 21.3523 17.2511 21.8019 17.4334L21.6471 18.2033L21.6471 18.2035C21.5375 18.7544 21.0685 19.1522 20.5065 19.1704C20.5064 19.1704 20.5063 19.1704 20.5063 19.1704L10.8376 19.445L13.8535 17.5874ZM15.9055 7.03322C15.9055 3.96722 18.4007 1.47213 21.4666 1.47213C24.5325 1.47213 27.0277 3.9673 27.0277 7.03322C27.0277 10.0991 24.5325 12.5943 21.4666 12.5943C18.4007 12.5943 15.9055 10.0991 15.9055 7.03322ZM21.4666 13.6656C21.5805 13.6656 21.6927 13.6586 21.8021 13.651V16.2979C21.5831 16.2304 21.3588 16.1782 21.1311 16.1423V13.651C21.2405 13.6586 21.3527 13.6656 21.4666 13.6656ZM6.22469 26.5299C5.31969 26.5299 4.58278 25.793 4.58278 24.888C4.58278 23.983 5.31969 23.2461 6.22469 23.2461C7.12969 23.2461 7.86661 23.983 7.86661 24.888C7.86661 25.793 7.12969 26.5299 6.22469 26.5299ZM23.2085 26.5299C22.3035 26.5299 21.5666 25.793 21.5666 24.888C21.5666 23.983 22.3035 23.2461 23.2085 23.2461C24.1135 23.2461 24.8504 23.983 24.8504 24.888C24.8504 25.793 24.1135 26.5299 23.2085 26.5299Z" fill="black" stroke="black" stroke-width="0.2"/>
</svg>
