<svg width="85" height="70" viewBox="0 0 85 70" fill="none" xmlns="http://www.w3.org/2000/svg">
<circle cx="15.5" cy="41.2695" r="15.5" fill="#C9B59B" fill-opacity="0.45"/>
<g clip-path="url(#clip0_1189_2427)">
<path d="M27.5801 0.207031C24.2441 0.876953 21.4141 3.05078 19.9102 6.08594L19.1992 7.50781L18.7344 6.90625C18.2285 6.22266 17.9141 6.01758 17.4219 6.01758C16.998 6.01758 16.5059 6.55078 16.5059 7.01562C16.5059 7.39844 18.6113 10.2148 19.2676 10.707C19.7324 11.0488 19.9648 10.9805 22.1113 9.70898C23.9023 8.64258 24.1758 8.3418 23.8613 7.68555C23.7656 7.49414 23.5195 7.23438 23.3008 7.11133C22.9453 6.91992 22.8906 6.93359 22.2207 7.27539C21.8379 7.48047 21.4824 7.63086 21.4551 7.58984C21.3867 7.52148 22.1934 6.04492 22.4805 5.7168C22.6719 5.49805 22.7266 5.49805 22.9727 5.67578C23.6563 6.1543 24.5723 5.70312 24.5723 4.89648C24.5723 4.66406 24.4766 4.36328 24.3535 4.22656C24.1621 4.00781 24.1758 3.9668 24.5996 3.65234C25.5293 2.95508 27.4297 2.18945 28.2227 2.18945C28.5098 2.18945 28.5371 2.25781 28.5371 2.79102C28.5371 3.54297 28.7695 4.21289 29.084 4.37695C29.4941 4.5957 29.959 4.54102 30.2871 4.24023C30.5332 4.00781 30.5879 3.80273 30.5879 3.07812C30.5879 2.18945 30.5879 2.18945 30.9707 2.18945C31.8047 2.18945 33.8691 3.00977 34.6621 3.63867C34.9629 3.88477 34.9766 3.91211 34.7578 4.41797C34.5664 4.86914 34.5664 4.96484 34.7441 5.32031C35.0586 5.92188 35.6602 6.05859 36.2481 5.67578C36.5625 5.4707 36.5898 5.4707 36.8496 5.83984C37.5195 6.79688 38.3672 8.94336 38.3809 9.73633C38.3809 9.80469 38.0117 9.8457 37.5469 9.8457C36.5625 9.8457 36.2891 9.96875 36.0703 10.5156C35.9336 10.8438 35.9336 10.9805 36.1113 11.3223C36.3711 11.8281 36.5488 11.8965 37.5879 11.8965H38.4082L38.3125 12.334C38.1074 13.4141 37.6152 14.7129 37.1367 15.4648C36.8496 15.9023 36.5625 16.2715 36.5078 16.2715C36.4395 16.2715 36.2754 16.1758 36.1387 16.0664C35.3047 15.4375 34.2793 16.4492 34.7715 17.3926C34.9902 17.8164 34.9902 17.8301 34.6758 18.0898C34.1016 18.5684 32.4473 19.2793 31.4082 19.498C30.6563 19.6621 30 19.7031 28.9063 19.6348C27.457 19.5664 27.416 19.5664 27.0742 19.9082C26.8008 20.1816 26.7461 20.3457 26.8145 20.6738C26.8555 20.9062 26.9648 21.1797 27.0469 21.2754C27.2793 21.5488 28.5098 21.7539 29.8359 21.7266L31.0664 21.6992L31.1348 22.9434C31.1895 23.9141 31.2715 24.2695 31.4902 24.5703C31.8184 25.0215 32.4746 25.2812 33.2813 25.2812L33.8555 25.2949L33.8965 29.2734L33.9375 33.252L34.3203 33.5801C34.6895 33.8945 34.7715 33.9082 36.959 33.9082H39.2012V35.5215C39.2012 37.3398 39.3652 37.8457 40.1582 38.3789C40.6094 38.6934 40.6231 38.6934 46.3242 38.6934C49.4824 38.6934 52.0527 38.7207 52.0527 38.748C52.0527 38.8164 46.584 51.5996 46.5293 51.6406C46.502 51.668 46.1328 51.7773 45.709 51.8867C45.2852 51.9961 44.6836 52.2148 44.3691 52.3789C43.6445 52.748 42.4688 53.8555 42.127 54.4844L41.8672 54.9629H32.748H23.6152V52.3926C23.6152 49.4258 23.5059 48.9199 22.6445 47.9355C22.3438 47.5938 21.7559 47.1562 21.332 46.9375C20.5938 46.582 20.416 46.5547 18.3926 46.5137C16.041 46.4453 15.6719 46.5 15.2754 46.8965C15.0156 47.1562 15.002 47.375 15.002 51.4766V55.7969L15.3438 56.125C15.7676 56.5625 16.2871 56.5625 16.7109 56.125L17.0527 55.7969V52.1465V48.5098L18.5977 48.5645C20.3203 48.6191 20.8535 48.8105 21.291 49.5352C21.5508 49.959 21.5645 50.2871 21.5645 58.2578V66.543L21.25 67.0078C20.7441 67.7598 20.2109 67.9512 18.5293 67.9512H17.0527V63.5078V59.0508L16.7109 58.7227C16.5332 58.5312 16.2188 58.3809 16.0273 58.3809C15.8359 58.3809 15.5215 58.5312 15.3438 58.7227L15.002 59.0508V64.1914V69.332L15.3438 69.6738L15.6992 70.0293L18.1875 69.9746C20.9766 69.9336 21.3457 69.8242 22.4258 68.7852C23.4648 67.8008 23.5332 67.541 23.6152 64.3965L23.6836 61.5938L33.3496 61.5527L43.0293 61.5254L43.6309 61.9902C44.6563 62.7695 45.6406 63.084 47.0625 63.0703C47.9922 63.0703 48.4844 63.002 49.0449 62.7832C51.8066 61.7031 53.3516 58.5859 52.4902 55.8242L52.2305 55.0039L55.7305 46.8828L59.2305 38.7617L60.2969 38.6934C61.1582 38.6387 61.418 38.5703 61.5684 38.3652C61.9785 37.791 61.7324 37.0254 61.0625 36.793C60.7617 36.6836 57.6582 36.6426 50.9453 36.6426H41.252V35.2754V33.9082H56.0859H70.9199V35.2617V36.6289L67.625 36.6699L64.3301 36.7109L64.002 37.0938C63.6055 37.5586 63.5918 37.8594 63.9609 38.3379L64.2344 38.6934H67.8984C71.4805 38.6934 71.5762 38.6797 72.0137 38.3926C72.8066 37.8457 72.9707 37.3398 72.9707 35.5215V33.9082H75.2129C77.4004 33.9082 77.4824 33.8945 77.8516 33.5801C78.1934 33.2793 78.2344 33.1562 78.2754 32.1445L78.3301 31.0371H79.4512C80.9141 31.0371 82.0215 30.7363 82.9375 30.1074C85.918 28.0703 85.5625 23.5996 82.3086 21.9863C81.502 21.5898 81.2695 21.5488 79.8613 21.4941L78.3027 21.4258V20.7012V19.9629H79.3008C80.4629 19.9629 81.0098 19.7031 81.3516 18.9922C82.3223 16.9277 84.9063 10.7754 84.9609 10.3789C85.0566 9.75 84.7285 9.10742 84.1406 8.75195C83.7168 8.49219 83.4024 8.47852 76.4844 8.47852H69.2656L68.9375 8.82031C68.5 9.24414 68.5 9.76367 68.9375 10.1875L69.2656 10.5293H76.0332H82.7871L81.2012 14.2207L79.6016 17.8984L72.4238 17.9395C65.7656 17.9805 65.2188 17.9941 64.877 18.2266C64.6445 18.3906 64.0703 19.334 63.2637 20.8652L62.0059 23.2441H47.5957H33.1855V22.1777V21.1113L33.7051 20.9336C35.25 20.3867 37.4922 18.5957 38.5449 17.0508C39.707 15.3418 40.4316 13.1816 40.4316 11.459V10.5293H53.2148H66.0117L66.3399 10.1875C66.5313 10.0098 66.6816 9.69531 66.6816 9.50391C66.6816 9.3125 66.5313 8.99805 66.3399 8.82031L66.0117 8.47852H53.0781C41.5664 8.47852 40.1582 8.45117 40.1582 8.27344C40.1582 7.79492 39.2695 5.79883 38.6406 4.86914C37.8477 3.67969 36.4258 2.29883 35.2773 1.60156C33.0215 0.234375 30.0957 -0.298828 27.5801 0.207031ZM76.1836 25.9102V31.7891H56.0859H35.9883L35.9473 28.5488L35.9199 25.2949L49.3457 25.2676L62.7852 25.2266L63.1953 24.9395C63.4824 24.7344 63.9883 23.9141 64.8223 22.3008L66.0391 19.9629L71.1113 19.9902L76.1836 20.0312V25.9102ZM81.6797 23.9551C82.3906 24.4199 82.8008 25.1035 82.9102 25.9648C83.0195 26.9629 82.4863 28.0293 81.6113 28.5352C81.0645 28.8633 80.791 28.918 79.6426 28.959L78.3027 29.0137V26.252V23.4902L79.7246 23.5449C80.9688 23.5859 81.2012 23.627 81.6797 23.9551ZM56.9336 38.8574C56.4961 39.9922 50.9043 52.8711 50.8223 52.9668C50.7539 53.0215 50.5078 52.9258 50.2481 52.7344C50.002 52.543 49.5371 52.2695 49.2227 52.1328L48.6621 51.8867L51.4238 45.4609C52.9414 41.9199 54.2266 38.9531 54.2949 38.8574C54.4316 38.625 57.0293 38.625 56.9336 38.8574ZM48.5391 54.0879C49.8652 54.7578 50.6856 56.043 50.6856 57.4102C50.6719 58.7227 49.9883 59.9258 48.8672 60.5684C46.4063 61.9766 43.4121 60.2539 43.4121 57.4238C43.4121 55.8789 44.4648 54.3887 45.8867 53.9375C46.6387 53.6914 47.8965 53.7734 48.5391 54.0879ZM41.3613 58.0117C41.4434 58.5723 41.5527 59.1191 41.6074 59.2422C41.6895 59.4609 41.0195 59.4746 32.6523 59.4746H23.6152V58.3398C23.6152 57.7109 23.6563 57.1504 23.7109 57.1094C23.752 57.0547 27.7168 57.0137 32.502 57.0137H41.2246L41.3613 58.0117Z" fill="black"/>
<path d="M62.3476 27.8926C61.7461 28.1387 61.5683 29.0684 62.0332 29.5332C62.2929 29.793 62.4844 29.8066 65.3828 29.8066C68.3633 29.8066 68.459 29.793 68.7324 29.5059C69.2383 28.959 69.0332 28.166 68.3086 27.9063C67.789 27.7285 62.7988 27.7148 62.3476 27.8926Z" fill="black"/>
<path d="M29.0017 6.05859L28.6052 6.40039L28.5642 8.42383C28.4821 11.8145 28.5368 11.8965 30.656 11.8965C32.0095 11.8965 32.1188 11.8691 32.4333 11.5547C32.8708 11.1309 32.8708 10.6113 32.4333 10.1875C32.1599 9.90039 31.9685 9.8457 31.3395 9.8457H30.5876V8.0957C30.5876 6.18164 30.5192 6.00391 29.7536 5.8125C29.4802 5.74414 29.3024 5.8125 29.0017 6.05859Z" fill="black"/>
<path d="M17.3945 11.5549C17.3262 11.5823 17.0938 11.637 16.8887 11.678C16.0547 11.8694 15.0156 13.1956 15.002 14.0979C15.002 14.5628 15.5352 15.0413 16.041 15.0413C16.4922 15.0413 16.9844 14.6174 17.0801 14.1663C17.0938 14.0296 17.2441 13.8245 17.3945 13.7288C17.6406 13.5647 17.7227 13.5784 17.9824 13.7561C18.6387 14.221 18.3105 15.0276 16.123 18.2815C15.207 19.6487 15.0703 20.1682 15.5352 20.6331C15.9043 21.0022 16.4785 21.0842 18.3926 21.0296C20.3066 20.9749 20.6074 20.8381 20.6074 19.9631C20.6074 19.2659 20.334 19.0881 19.1582 19.0061L18.1465 18.9378L18.9941 17.6389C20.1836 15.7932 20.3613 15.301 20.3066 14.2073C20.252 13.1409 19.8145 12.3889 18.9941 11.9378C18.502 11.6643 17.668 11.4592 17.3945 11.5549Z" fill="black"/>
<path d="M23.5599 11.7871C23.1634 12.1426 20.6478 16.8457 20.5248 17.4746C20.4564 17.8028 20.5111 17.9668 20.7845 18.2403C21.1126 18.5684 21.222 18.5957 22.4251 18.5957H23.724L23.7787 19.4297C23.8333 20.0996 23.9017 20.332 24.1478 20.5235C24.558 20.8653 24.9955 20.8516 25.4466 20.4961C25.7611 20.25 25.8021 20.1133 25.8021 19.4024C25.8021 18.9512 25.8568 18.5957 25.9388 18.5957C26.2396 18.5957 26.6224 18.0352 26.6224 17.5703C26.6224 17.2012 26.5267 17.0371 26.2123 16.791L25.8021 16.4903V14.5352C25.8021 12.457 25.6791 11.9238 25.1322 11.6231C24.6673 11.377 23.9291 11.459 23.5599 11.7871ZM23.7513 16.0664C23.7513 16.4492 23.6966 16.5449 23.4779 16.5449C23.2181 16.5449 23.2181 16.5313 23.4369 16.0664C23.5599 15.8067 23.683 15.5879 23.7103 15.5879C23.7376 15.5879 23.7513 15.8067 23.7513 16.0664Z" fill="black"/>
<path d="M69.1576 13.7715C69.0072 13.9082 68.8294 14.209 68.7884 14.4551C68.7201 14.8105 68.7748 14.9609 69.0482 15.2344L69.4037 15.5898H72.1927C74.9271 15.5898 74.9818 15.5898 75.2689 15.2754C75.6927 14.8242 75.6654 14.1816 75.2142 13.8262C74.8724 13.5527 74.6673 13.5391 72.1517 13.5391C69.7728 13.5391 69.4173 13.5664 69.1576 13.7715Z" fill="black"/>
</g>
<circle cx="71" cy="55.7695" r="5" fill="#C9B59B"/>
<defs>
<clipPath id="clip0_1189_2427">
<rect width="70" height="70" fill="white" transform="translate(15)"/>
</clipPath>
</defs>
</svg>
