<svg width="81" height="78" viewBox="0 0 81 78" fill="none" xmlns="http://www.w3.org/2000/svg">
<circle cx="15.5" cy="15.5" r="15.5" fill="#C9B59B" fill-opacity="0.45"/>
<circle cx="76" cy="45" r="5" fill="#C9B59B"/>
<path d="M18.4478 11.1445C18.1334 11.2129 17.6002 11.418 17.2857 11.6094C15.2076 12.8262 14.9615 15.9023 16.8072 17.4746C17.6685 18.2129 18.4068 18.3906 20.7174 18.3906H22.6724L22.6451 23.4766L22.6041 28.5762L20.5533 28.6172C18.6529 28.6445 18.4888 28.6719 18.2701 28.9316C18.0377 29.2051 18.024 29.7656 18.024 36.4512C18.024 43.5059 18.0377 43.6973 18.2974 43.957C18.6666 44.3262 19.0494 44.2988 19.3775 43.875C19.6646 43.5195 19.6646 43.3828 19.6646 36.834V30.1484H23.5611H27.4576V35.7949C27.4576 41.0996 27.4713 41.4688 27.7037 41.6738C27.9361 41.8789 28.6607 41.9062 35.2232 41.9062H42.4967V47.5527C42.4967 52.8574 42.5103 53.2266 42.7427 53.4316C42.9752 53.6367 43.6998 53.6641 50.2623 53.6641H57.522L57.5631 59.3105C57.5904 63.8633 57.6451 65.0117 57.7955 65.1895C57.9595 65.3945 58.6295 65.4219 64.8638 65.4219H71.7545V69.3867V73.3516L51.5611 73.3789L31.3677 73.4199L31.1627 73.7754C30.9849 74.1035 30.9849 74.1719 31.19 74.5L31.4224 74.8555H52.1217C71.9869 74.8555 72.8209 74.8418 73.0259 74.6094C73.231 74.377 73.2584 73.8164 73.2584 69.3594C73.2584 64.6973 73.2447 64.3555 73.0123 64.1504C72.7935 63.9453 72.3697 63.918 70.0045 63.918H67.2427V57.2871V50.6562L69.8677 52.8438C72.0689 54.6895 72.6295 55.0723 73.2447 55.2637C75.7056 55.9746 78.0982 54.0059 77.8658 51.4766C77.7838 50.4922 77.4146 49.7949 76.5806 49.002C76.2252 48.6602 73.2857 46.1582 70.0455 43.4512C66.8189 40.7578 58.0142 33.375 50.4947 27.0723C42.9752 20.7695 35.7838 14.7402 34.4986 13.6738C33.2271 12.6074 31.9009 11.582 31.5592 11.4043L30.9439 11.0762L24.9967 11.0488C21.7291 11.0352 18.7759 11.0898 18.4478 11.1445ZM31.0806 12.9082C31.6822 13.2773 75.0084 49.6035 75.6646 50.3008C76.4302 51.0801 76.5533 51.7773 76.1021 52.666C75.897 53.0762 75.6236 53.3906 75.3091 53.5547C74.7759 53.8281 73.7916 53.8828 73.3541 53.6367C73.108 53.5137 63.565 45.543 45.1627 30.0938C33.5552 20.3457 29.4537 16.9414 29.2623 16.8594C29.1256 16.8047 26.6509 16.7637 23.7525 16.7637C18.5162 16.75 18.4752 16.75 18.024 16.4355C17.0806 15.793 16.8209 14.6582 17.4088 13.6738C18.0103 12.6348 17.8736 12.6484 24.6549 12.6484C30.3013 12.6484 30.6978 12.6621 31.0806 12.9082ZM33.1041 22.0273L37.4381 25.6641V33.0332V40.4023L33.2408 40.375L29.0299 40.334L28.9888 34.6602C28.9615 29.5195 28.9342 28.9727 28.7291 28.8086C28.565 28.6992 27.8541 28.6445 26.3365 28.6445H24.1763V23.5176V18.3906H26.4732H28.7564L33.1041 22.0273ZM45.4771 32.3906L51.6568 37.5723V44.8594V52.1602H47.815H43.9595L44.0142 46.5C44.0552 41.9746 44.0279 40.7852 43.8912 40.6484C43.7681 40.5254 43.0435 40.457 41.3619 40.4023L39.0103 40.334L38.9693 33.6621C38.942 28.1523 38.9693 27.0039 39.1197 27.0996C39.2154 27.1543 42.0865 29.5332 45.4771 32.3906ZM59.7779 44.3672L65.7388 49.3574V56.6309V63.918H62.4576H59.1763V58.3398C59.1763 53.5137 59.149 52.7207 58.9576 52.4609C58.7525 52.1602 58.6842 52.1602 55.9498 52.1602H53.1607V45.5156V38.8711L53.4888 39.1309C53.6802 39.2676 56.5103 41.6191 59.7779 44.3672Z" fill="black"/>
<path d="M58.2742 11.1582C58.0554 11.2266 57.7136 11.4316 57.5222 11.6367L57.1941 11.9922L57.1531 18.5C57.1121 25.4316 57.1257 25.541 57.782 26.0469C58.1101 26.3066 58.3835 26.3203 67.53 26.3203H76.95L77.3875 25.9238L77.8386 25.5273L77.8796 18.8281L77.9207 12.1289L77.5652 11.7051C77.3601 11.4727 76.9773 11.2266 76.7039 11.1445C76.075 10.9805 58.8894 10.9805 58.2742 11.1582ZM76.4031 15.957V19.2793L74.7214 19.293C72.575 19.3066 70.6199 19.7168 69.1296 20.4551L68.6375 20.7012L68.0359 20.1543C66.9695 19.1699 65.1375 18.2402 63.3738 17.7891C62.2527 17.502 59.9011 17.2559 59.2175 17.3652L58.6296 17.4473V15.0547V12.6484H67.5164H76.4031V15.957ZM63.0046 19.2793C64.071 19.5527 66.1902 20.5645 66.7917 21.0977L67.2292 21.4805L66.3679 22.3828C65.8074 22.957 65.3835 23.5586 65.1785 24.0508L64.864 24.8164H61.7468H58.6296V21.8633V18.8965L60.3796 18.9785C61.3367 19.0195 62.5125 19.1562 63.0046 19.2793ZM76.4031 22.834V24.8164H71.4675H66.5457L66.8601 24.2559C67.448 23.1895 69.1296 22 70.7976 21.4531C72.1785 21.0156 73.0398 20.8789 74.7351 20.8652L76.4031 20.8516V22.834Z" fill="black"/>
<path d="M68.3776 14.8369C67.5846 15.3154 67.5299 16.5322 68.2819 17.1748C69.2252 17.9815 70.6608 17.2295 70.6608 15.917C70.6608 15.6162 70.5241 15.3565 70.196 15.0283C69.6491 14.4815 69.0612 14.4131 68.3776 14.8369Z" fill="black"/>
<path d="M12.4187 46.7051C11.7624 46.8281 11.4616 47.1152 11.4616 47.5801C11.4616 47.9355 11.694 48.1543 12.6237 48.6738C13.3757 49.0977 14.8933 50.2051 15.8093 51.0254L16.4108 51.5449H14.5105C13.1433 51.5449 12.3913 51.6133 11.7487 51.791C10.3952 52.1602 10.1628 52.2969 10.1218 52.8027C10.0808 53.1855 10.1491 53.2949 10.5319 53.5273C10.778 53.6777 11.0788 53.8008 11.1882 53.8008C11.653 53.8008 14.1687 55.1816 14.8933 55.8379C16.1647 56.9727 17.1355 58.709 17.3815 60.2539L17.4636 60.7734H15.9597H14.4694L13.9909 61.2246C13.6628 61.5117 13.4714 61.8262 13.4304 62.1543C13.3347 62.7695 15.2077 72.0938 15.5769 72.8184C15.987 73.6387 16.4929 74.1309 17.3132 74.541L18.0925 74.9238H21.4421C24.573 74.9238 24.8327 74.9102 25.4206 74.6367C26.2136 74.2676 27.1159 73.3242 27.3894 72.6133C27.4987 72.2988 28.0183 69.8789 28.5651 67.2266C29.4812 62.7012 29.5222 62.3594 29.3444 61.8945C29.2351 61.6211 28.948 61.252 28.7019 61.0879C28.278 60.8008 28.073 60.7734 26.5554 60.7734C24.6003 60.7734 24.655 60.8145 25.0788 59.3926C25.5573 57.8066 26.405 56.5898 27.7995 55.4961C28.7702 54.7441 29.4812 54.375 30.9167 53.8691C31.6687 53.5957 32.0378 53.3906 32.1335 53.1855C32.3249 52.7754 32.0651 52.3242 31.5183 52.0918C30.8757 51.832 29.071 51.4766 28.319 51.4766C27.7038 51.4629 27.6765 51.4492 27.9362 51.2578C28.4011 50.9023 30.3425 50.0137 31.4089 49.6855C32.5847 49.3027 32.9265 48.9473 32.6667 48.3867C32.2292 47.416 28.4421 46.7324 26.2956 47.2383C24.737 47.5938 22.5905 49.0703 21.8933 50.2598C21.7565 50.4785 21.6198 50.6563 21.5788 50.6563C21.5378 50.6563 21.3327 50.3418 21.1003 49.959C20.2116 48.4551 18.3112 47.1836 16.3151 46.7598C15.2761 46.541 13.3894 46.5137 12.4187 46.7051ZM16.7937 48.4961C18.4343 49.043 19.8562 50.4648 20.4851 52.1328C20.8542 53.1035 20.9772 53.2539 21.4421 53.2539C21.8796 53.2539 22.112 53.0215 22.5905 52.0645C23.1511 50.9297 24.3269 49.7813 25.489 49.207C26.3913 48.7559 26.6374 48.6875 27.8679 48.6328C28.6198 48.5918 29.2351 48.6191 29.2351 48.6875C29.2351 48.7559 28.7019 49.084 28.0456 49.4258C26.1179 50.3965 23.3562 52.6113 23.3562 53.1582C23.3562 53.4863 23.78 53.9375 24.1081 53.9375C24.2858 53.9375 24.7233 53.7871 25.0925 53.6094C25.8308 53.2266 27.28 52.9395 28.0866 53.0078L28.6198 53.0488L27.5944 53.7188C25.2839 55.2227 23.862 57.3008 23.3562 59.9258L23.1784 60.7734H21.1003H19.0222L18.8581 59.8438C18.3933 57.3145 16.7526 54.9902 14.4284 53.5684L13.5808 53.0488L14.1003 53.0078C15.6179 52.8848 17.4226 53.5137 18.5437 54.5664C18.8991 54.9082 19.3093 55.168 19.4733 55.168C19.8698 55.168 20.2116 54.8262 20.2116 54.4297C20.2116 53.7051 17.778 50.6016 16.2331 49.3301C15.7546 48.9473 15.2077 48.4961 15.0163 48.332L14.6745 48.0449L15.3581 48.1406C15.7409 48.1953 16.3835 48.3457 16.7937 48.4961ZM27.8679 62.5645C27.8679 63.2754 26.0769 71.6836 25.8171 72.2031C25.6394 72.5449 25.3249 72.873 24.9968 73.0645C24.4772 73.3516 24.3405 73.3652 21.2644 73.3242L18.0651 73.2832L17.5866 72.9141C17.3269 72.709 17.0397 72.3809 16.944 72.1621C16.739 71.6289 14.8796 62.5234 14.9616 62.3867C15.0026 62.332 17.9147 62.2773 21.4558 62.2773H27.8679V62.5645Z" fill="black"/>
</svg>
