<svg width="35" height="23" viewBox="0 0 35 23" fill="none" xmlns="http://www.w3.org/2000/svg">
<path d="M17.4929 15.9232C16.1092 15.9232 14.729 15.8336 13.3596 15.6507C13.4564 15.6651 13.5496 15.6758 13.6464 15.6902C11.5529 15.407 9.47735 14.9087 7.52724 14.0914C7.61328 14.1272 7.69931 14.1631 7.78534 14.1989C6.8318 13.7938 5.90335 13.3135 5.05734 12.7184C4.96772 12.6539 4.87452 12.5894 4.78849 12.5212C4.76698 12.5033 4.74547 12.489 4.72396 12.4711C4.60208 12.3814 4.85301 12.5714 4.84584 12.5643C4.79566 12.5177 4.7383 12.4818 4.68811 12.4388C4.51605 12.299 4.34756 12.152 4.18266 11.9979C4.0321 11.8545 3.88513 11.7075 3.74532 11.5534C3.67721 11.4781 3.6091 11.3992 3.54099 11.3203C3.50873 11.2845 3.48005 11.2451 3.45137 11.2092C3.35817 11.0945 3.64853 11.4709 3.50156 11.2702C3.23987 10.9224 3.0212 10.546 2.84913 10.1445C2.88498 10.2306 2.92083 10.3166 2.95667 10.4027C2.8097 10.0478 2.70216 9.67495 2.65197 9.29138C2.66631 9.38816 2.67706 9.48137 2.6914 9.57816C2.6448 9.21968 2.6448 8.85762 2.6914 8.49914C2.67706 8.59593 2.66631 8.68914 2.65197 8.78592C2.70574 8.40236 2.8097 8.03312 2.95667 7.67465C2.92083 7.76068 2.88498 7.84672 2.84913 7.93275C2.99969 7.58144 3.18968 7.24806 3.40835 6.9326C3.43703 6.89317 3.46213 6.85732 3.4908 6.81789C3.50514 6.79997 3.51948 6.78204 3.53382 6.76054C3.61627 6.64582 3.42628 6.91109 3.42986 6.89317C3.44779 6.81789 3.58401 6.70318 3.63778 6.64224C3.77758 6.48092 3.92097 6.32678 4.07153 6.1798C4.22926 6.02566 4.39416 5.87868 4.56265 5.73529C4.6451 5.66718 4.72755 5.59907 4.81358 5.53096C4.93905 5.43059 4.56982 5.71737 4.75981 5.57398C4.81358 5.53096 4.87094 5.49153 4.92471 5.4521C5.31903 5.16532 5.73128 4.90721 6.15428 4.67062C6.68482 4.37309 7.23329 4.1114 7.79251 3.8748C7.70648 3.91065 7.62045 3.9465 7.53441 3.98235C9.48452 3.16502 11.5601 2.66674 13.6536 2.38354C13.5568 2.39788 13.4636 2.40864 13.3668 2.42298C15.5141 2.1362 17.6972 2.07884 19.8588 2.24015C20.4539 2.28317 21.0454 2.3477 21.6369 2.42298C21.5401 2.40864 21.4469 2.39788 21.3501 2.38354C23.4436 2.66674 25.5191 3.16502 27.4693 3.98235C27.3832 3.9465 27.2972 3.91065 27.2112 3.8748C28.1647 4.27988 29.0932 4.76024 29.9392 5.35531C30.0288 5.41984 30.122 5.48436 30.208 5.55247C30.2295 5.57039 30.251 5.58473 30.2725 5.60266C30.3944 5.69228 30.1435 5.50229 30.1507 5.50945C30.2008 5.55606 30.2582 5.5919 30.3084 5.63492C30.4805 5.77473 30.6489 5.9217 30.8138 6.07585C30.9644 6.21924 31.1114 6.36621 31.2512 6.52036C31.3193 6.59564 31.3874 6.6745 31.4555 6.75337C31.4878 6.78921 31.5165 6.82865 31.5451 6.86449C31.6383 6.97921 31.348 6.60281 31.4949 6.80355C31.7566 7.15127 31.9753 7.52767 32.1474 7.92917C32.1115 7.84313 32.0757 7.7571 32.0398 7.67106C32.1868 8.02596 32.2943 8.39877 32.3445 8.78234C32.3302 8.68555 32.3194 8.59235 32.3051 8.49556C32.3517 8.85762 32.3517 9.22326 32.3051 9.58533C32.3194 9.48854 32.3302 9.39533 32.3445 9.29854C32.2908 9.67853 32.1868 10.0478 32.0398 10.4027C32.0757 10.3166 32.1115 10.2306 32.1474 10.1445C32.0004 10.4923 31.814 10.8185 31.5989 11.1268C31.5666 11.1698 31.538 11.2164 31.5057 11.2594C31.4949 11.2773 31.4806 11.2917 31.4698 11.3096C31.4089 11.3956 31.5953 11.1519 31.5738 11.1734C31.4985 11.2522 31.434 11.349 31.3623 11.4315C31.2261 11.5892 31.0827 11.7398 30.9357 11.8867C30.7816 12.0373 30.6203 12.1843 30.4518 12.3241C30.3693 12.3958 30.2833 12.4603 30.2008 12.5284C30.0682 12.636 30.4195 12.3635 30.251 12.489C30.2008 12.5284 30.1507 12.5643 30.0969 12.6037C29.699 12.8941 29.2796 13.1593 28.8494 13.3995C28.326 13.6935 27.7847 13.9516 27.2327 14.1882C27.3187 14.1523 27.4047 14.1165 27.4908 14.0806C26.548 14.4785 25.5765 14.7976 24.5871 15.0557C24.0422 15.1991 23.6587 15.83 23.8343 16.3784C24.0171 16.9377 24.5728 17.2818 25.1571 17.1312C26.6268 16.7441 28.0679 16.2243 29.423 15.5324C30.545 14.9589 31.6276 14.2383 32.5202 13.3422C33.3196 12.5428 33.9756 11.5713 34.2946 10.4815C34.5742 9.52438 34.5707 8.4633 34.2695 7.50975C33.6386 5.49153 31.9574 4.00027 30.1865 2.95711C27.9389 1.63433 25.3578 0.863607 22.7947 0.440606C19.7405 -0.0648454 16.6146 -0.14371 13.5425 0.247028C10.7786 0.601919 8.04345 1.27227 5.55204 2.55203C4.55548 3.06465 3.60552 3.69198 2.77385 4.44837C2.07841 5.08287 1.44391 5.85001 1.04958 6.71035C0.651675 7.57428 0.418665 8.52782 0.526208 9.48495C0.633751 10.4636 0.963549 11.392 1.52994 12.2022C2.8563 14.1057 4.9032 15.3102 7.00387 16.1885C9.6064 17.2746 12.4312 17.798 15.2345 17.9988C15.9873 18.0525 16.7437 18.0776 17.4965 18.0776C18.0593 18.0776 18.597 17.5829 18.5719 17.0022C18.5432 16.4143 18.0951 15.9232 17.4929 15.9232Z" fill="#E8DED0"/>
<path d="M12.2165 13.2653C12.722 13.7707 13.2274 14.2762 13.7329 14.7816C14.5394 15.5882 15.346 16.3947 16.1562 17.2049C16.3426 17.3913 16.5326 17.5813 16.719 17.7677C16.719 17.2623 16.719 16.7532 16.719 16.2478C16.2135 16.7532 15.7081 17.2587 15.2026 17.7641C14.396 18.5707 13.5895 19.3773 12.7793 20.1874C12.5929 20.3738 12.4029 20.5638 12.2165 20.7502C11.8186 21.1481 11.7899 21.8794 12.2165 22.2702C12.6467 22.6645 13.3134 22.6968 13.7364 22.2702C14.2419 21.7647 14.7473 21.2593 15.2528 20.7538C16.0594 19.9472 16.8659 19.1407 17.6761 18.3305C17.8625 18.1441 18.0525 17.9541 18.2389 17.7677C18.6511 17.3555 18.6511 16.66 18.2389 16.2478C17.7334 15.7423 17.228 15.2369 16.7225 14.7314C15.916 13.9248 15.1094 13.1183 14.2993 12.3081C14.1128 12.1217 13.9229 11.9317 13.7364 11.7453C13.3385 11.3474 12.6072 11.3187 12.2165 11.7453C11.8222 12.1755 11.7935 12.8422 12.2165 13.2653Z" fill="#E8DED0"/>
</svg>
