<svg width="24" height="24" viewBox="0 0 24 24" fill="none" xmlns="http://www.w3.org/2000/svg">
<g clip-path="url(#clip0_52_248)">
<path d="M18.4398 1.33496H5.09978C4.00999 1.33686 2.96538 1.77062 2.19478 2.54122C1.42418 3.31181 0.990426 4.35642 0.988525 5.44621V18.7862C0.990426 19.876 1.42418 20.9206 2.19478 21.6912C2.96538 22.4618 4.00999 22.8956 5.09978 22.8975H18.4398C19.5296 22.8956 20.5742 22.4618 21.3448 21.6912C22.1154 20.9206 22.5491 19.876 22.551 18.7862V5.44621C22.5491 4.35642 22.1154 3.31181 21.3448 2.54122C20.5742 1.77062 19.5296 1.33686 18.4398 1.33496ZM21.1135 18.7862C21.1116 19.4948 20.8293 20.1737 20.3283 20.6747C19.8273 21.1758 19.1483 21.4581 18.4398 21.46H5.09978C4.39124 21.4581 3.71226 21.1758 3.21124 20.6747C2.71023 20.1737 2.42792 19.4948 2.42603 18.7862V5.44621C2.42792 4.73767 2.71023 4.05869 3.21124 3.55768C3.71226 3.05666 4.39124 2.77436 5.09978 2.77246H18.4398C19.1483 2.77436 19.8273 3.05666 20.3283 3.55768C20.8293 4.05869 21.1116 4.73767 21.1135 5.44621V18.7862Z" fill="#12192C"/>
<path d="M18.2385 13.4387C18.0479 13.4387 17.8651 13.5144 17.7303 13.6492C17.5955 13.784 17.5198 13.9668 17.5198 14.1575V16.8528L7.03321 6.36621H9.72853C9.91915 6.36621 10.102 6.29049 10.2368 6.15569C10.3716 6.0209 10.4473 5.83809 10.4473 5.64746C10.4473 5.45684 10.3716 5.27402 10.2368 5.13923C10.102 5.00444 9.91915 4.92871 9.72853 4.92871H5.07821C4.94668 4.92871 4.82054 4.98096 4.72753 5.07397C4.63453 5.16697 4.58228 5.29312 4.58228 5.42465V10.075C4.58228 10.2656 4.658 10.4484 4.79279 10.5832C4.92758 10.718 5.1104 10.7937 5.30103 10.7937C5.49165 10.7937 5.67447 10.718 5.80926 10.5832C5.94405 10.4484 6.01978 10.2656 6.01978 10.075V7.37965L16.5063 17.8662H13.811C13.6204 17.8662 13.4376 17.9419 13.3028 18.0767C13.168 18.2115 13.0923 18.3943 13.0923 18.585C13.0923 18.7756 13.168 18.9584 13.3028 19.0932C13.4376 19.228 13.6204 19.3037 13.811 19.3037H18.4613C18.5929 19.3037 18.719 19.2515 18.812 19.1585C18.905 19.0654 18.9573 18.9393 18.9573 18.8078V14.1575C18.9573 13.9668 18.8816 13.784 18.7468 13.6492C18.612 13.5144 18.4291 13.4387 18.2385 13.4387Z" fill="#12192C"/>
</g>
<defs>
<clipPath id="clip0_52_248">
<rect width="23" height="23" fill="white" transform="translate(0.269775 0.616211)"/>
</clipPath>
</defs>
</svg>
